<svg xmlns="http://www.w3.org/2000/svg" width="69.162" height="70.514" viewBox="0 0 69.162 70.514">
  <g id="Groupe_1457" data-name="Groupe 1457" transform="translate(-4129.321 2400.013)">
    <g id="applat">
      <path id="Tracé_4220" data-name="Tracé 4220" d="M4180.484-2360.238s3.508,4.386,3.306,6.141-3.356,8.615-6.407,10.716-8.225.669-8.225.669l-.134,1.824-5.992-5.12,5.386-5.648.059,2.192,9.207-.031-3.646-7.988Z" fill="#c0edbc"/>
      <path id="Tracé_4221" data-name="Tracé 4221" d="M4160.66-2343.438s-5.393,1.316-6.9.419a14.307,14.307,0,0,1-6.862-10.424c-.583-3.687,2.9-7.82,2.9-7.82l-1.574-.9,7.126-3.314,2.762,7.333-1.382.188-4.489,7.384,8.694.054Z" fill="#c0edbc"/>
      <path id="Tracé_4222" data-name="Tracé 4222" d="M4155.038-2368.011s1.5-5.435,3.033-6.284,8.884-2.219,12.342-.918,5.3,6.4,5.3,6.4l1.546-.946-.655,7.91-7.668-1.174,1.731-1.319-3.956-6.894-5.723,6.948Z" fill="#c0edbc"/>
      <path id="Tracé_4223" data-name="Tracé 4223" d="M4146.835-2391.261l-3.89,7.043-13.551-.09.232-7.183Z" fill="#c0edbc"/>
      <path id="Tracé_4224" data-name="Tracé 4224" d="M4162.418-2398.991l-2.856,7.5h-6.073l-1.18-7.753Z" fill="#c0edbc"/>
    </g>
    <g id="contour">
      <g id="Groupe_1456" data-name="Groupe 1456">
        <g id="Groupe_1453" data-name="Groupe 1453">
          <g id="Groupe_1450" data-name="Groupe 1450">
            <path id="Tracé_4225" data-name="Tracé 4225" d="M4162.418-2375.189c1.577,1.819,3.112,3.5,4.606,5.094s2.877,3.127,4.221,4.706a.778.778,0,0,1-.068,1.079l-.047.042c-.568.515-1.145,1.02-1.725,1.522l-.477-1.539c2.725.176,5.446.4,8.165.641l-1.08.925c.064-1.346.172-2.689.263-4.034s.175-2.689.3-4.031l1.445.833-1.768,1.12-.03.019a.873.873,0,0,1-1.142-.192c-1.338-1.68-2.626-3.4-3.926-5.111l.069.071a2.33,2.33,0,0,0-.761-.464,2.926,2.926,0,0,0-.965-.145c-.731-.038-1.469-.111-2.226-.177C4165.764-2374.962,4164.131-2375.127,4162.418-2375.189Zm0,0c1.42-.062,2.92-.227,4.546-.359.809-.066,1.637-.138,2.473-.177a4.171,4.171,0,0,1,1.364.069,3.5,3.5,0,0,1,1.3.629l.027.024.042.048c1.432,1.6,2.877,3.193,4.271,4.826l-1.17-.173,1.715-1.2a.921.921,0,0,1,1.282.227.913.913,0,0,1,.165.557l0,.049c-.043,1.347-.135,2.692-.2,4.037s-.137,2.692-.24,4.035l0,.019a.984.984,0,0,1-1.059.907h-.02c-2.717-.265-5.432-.547-8.143-.877l-.042,0a.864.864,0,0,1-.754-.963.868.868,0,0,1,.319-.571c.6-.479,1.2-.954,1.811-1.419l-.115,1.12c-1.388-1.855-2.724-3.756-3.976-5.595S4163.573-2373.574,4162.418-2375.189Z"/>
            <path id="Tracé_4226" data-name="Tracé 4226" d="M4162.418-2374.793a8.29,8.29,0,0,0-1.658.412,8.473,8.473,0,0,0-1.5.684,9.506,9.506,0,0,0-2.466,2.012l.071-.08c-.584.895-1.213,1.756-1.817,2.635l-.185-1.342c1.163.857,2.348,1.684,3.479,2.584,1.152.871,2.265,1.794,3.38,2.715l-1.172.153a60.578,60.578,0,0,1,5.267-5.345,60.43,60.43,0,0,1-3.938,6.388.787.787,0,0,1-1.1.206h0l-.076-.053c-1.194-.816-2.389-1.63-3.546-2.5-1.178-.837-2.3-1.747-3.447-2.626l-.044-.034a.91.91,0,0,1-.168-1.276l.027-.033c.689-.815,1.352-1.65,2.062-2.449l.07-.081a10.115,10.115,0,0,1,1.514-1.087,8.9,8.9,0,0,1,1.694-.729A6.861,6.861,0,0,1,4162.418-2374.793Z"/>
          </g>
          <g id="Groupe_1451" data-name="Groupe 1451">
            <path id="Tracé_4227" data-name="Tracé 4227" d="M4149.475-2346.4c1.1-2.109,2.087-4.123,3.02-6.073s1.85-3.781,2.82-5.589a.769.769,0,0,1,.924-.365l.058.02q1.128.382,2.245.793l-1.128,1.126c-1.052-2.522-2.062-5.061-3.053-7.606l1.315.554c-1.226.547-2.469,1.054-3.706,1.577s-2.469,1.051-3.719,1.543l.088-1.67,1.81,1.067.03.018a.871.871,0,0,1,.308,1.192l-.044.067c-1.232,1.712-2.519,3.386-3.79,5.072l.062-.111a2.235,2.235,0,0,0-.212.867,1.714,1.714,0,0,0,.229.881c.3.679.574,1.378.861,2.094C4148.165-2349.525,4148.758-2347.979,4149.475-2346.4Zm0,0c-.712-1.255-1.549-2.541-2.406-3.952-.428-.7-.868-1.418-1.283-2.155a2.959,2.959,0,0,1-.491-1.359,3.432,3.432,0,0,1,.2-1.459.271.271,0,0,1,.027-.056l.035-.055c1.138-1.778,2.259-3.568,3.434-5.32l.294,1.276-1.857-.983a.922.922,0,0,1-.383-1.246.921.921,0,0,1,.425-.4l.045-.021c1.218-.566,2.455-1.086,3.683-1.629s2.455-1.086,3.7-1.6l.017-.007a.987.987,0,0,1,1.288.537l.01.025c.97,2.553,1.922,5.114,2.831,7.691l.014.039a.865.865,0,0,1-.528,1.1.864.864,0,0,1-.614-.015q-1.1-.45-2.194-.926l.981-.345c-1.207,1.945-2.473,3.854-3.712,5.672S4150.558-2348.046,4149.475-2346.4Z"/>
            <path id="Tracé_4228" data-name="Tracé 4228" d="M4149.29-2346.861a13.12,13.12,0,0,0,2.309,2.141,8.992,8.992,0,0,0,1.3.74,5.277,5.277,0,0,0,1.357.373l-.107-.012c1.214-.02,2.429-.065,3.643-.047,1.213,0,2.427.007,3.639.051l-1.015.975c-.029-1.411-.021-2.823,0-4.235,0-1.412.077-2.824.122-4.236l.85.85c-1.5-.082-3.01-.167-4.514-.3s-3.01-.292-4.515-.545c1.505-.253,3.01-.408,4.515-.544s3.009-.224,4.514-.306a.806.806,0,0,1,.848.759v.015l0,.076c.044,1.412.121,2.824.122,4.236.025,1.412.033,2.824,0,4.235v.024a.973.973,0,0,1-.993.953h-.021c-1.212-.051-2.422-.138-3.632-.235-1.211-.078-2.419-.218-3.628-.333l-.081-.008-.027-.005a6.366,6.366,0,0,1-2.935-1.851A9.087,9.087,0,0,1,4149.29-2346.861Z"/>
          </g>
          <g id="Groupe_1452" data-name="Groupe 1452">
            <path id="Tracé_4229" data-name="Tracé 4229" d="M4182.286-2349.62c-2.438.086-4.741.226-6.952.387s-4.306.275-6.411.33a.778.778,0,0,1-.793-.69l-.007-.064c-.087-.789-.157-1.58-.225-2.37l1.5.549-2.784,3.008-2.824,2.969-.052-1.426c1.013.881,2,1.793,2.993,2.693s2,1.794,2.97,2.719l-1.553.627.2-2.092,0-.035a.874.874,0,0,1,.881-.786c1.344.024,2.687.069,4.032.125l2.016.076.5.025a1.647,1.647,0,0,0,.378-.017,2.02,2.02,0,0,0,.729-.237,1.278,1.278,0,0,0,.278-.213c.088-.086.2-.227.305-.338l.637-.7,1.334-1.421C4180.364-2347.466,4181.333-2348.5,4182.286-2349.62Zm0,0c-.711,1-1.407,2.072-2.158,3.224l-1.165,1.749-.612.882c-.109.151-.193.281-.326.45a2.424,2.424,0,0,1-.472.456,3.248,3.248,0,0,1-1.129.517,2.926,2.926,0,0,1-.623.095l-.5.024-2.019.074c-1.347.054-2.694.1-4.041.121l.884-.821-.108,2.1a.923.923,0,0,1-.969.874.922.922,0,0,1-.547-.215l-.037-.032c-1.028-.865-2.021-1.768-3.032-2.651s-2.021-1.767-3.008-2.676l-.016-.015a.983.983,0,0,1-.058-1.389l.021-.023,2.868-2.927,2.907-2.889.026-.026a.867.867,0,0,1,1.225,0,.872.872,0,0,1,.251.572c.037.792.072,1.585.09,2.379l-.8-.753c2.347.085,4.7.238,6.947.42S4180.272-2349.737,4182.286-2349.62Z"/>
            <path id="Tracé_4230" data-name="Tracé 4230" d="M4182.286-2349.62a9.425,9.425,0,0,0,.985-2.721,6.593,6.593,0,0,0,.1-1.36,4.909,4.909,0,0,0-.238-1.274l.051.141c-.493-.876-1.015-1.737-1.486-2.624s-.972-1.758-1.415-2.658l1.243.464c-1.259.55-2.513,1.111-3.792,1.616-1.268.53-2.553,1.018-3.842,1.5l.421-1.217c.337.65.633,1.323.951,1.983s.613,1.334.909,2.007c.591,1.346,1.154,2.707,1.635,4.114-.937-1.154-1.791-2.355-2.618-3.57-.413-.608-.828-1.215-1.217-1.836s-.8-1.229-1.175-1.86a.843.843,0,0,1,.3-1.155l.065-.035.056-.026c1.243-.589,2.489-1.171,3.753-1.709,1.254-.565,2.531-1.073,3.8-1.591l.012,0a.97.97,0,0,1,1.232.469c.442.9.825,1.831,1.24,2.745s.778,1.853,1.169,2.779l.034.08a.286.286,0,0,1,.017.061,5.744,5.744,0,0,1-.415,3.206A7.026,7.026,0,0,1,4182.286-2349.62Z"/>
          </g>
        </g>
        <g id="Groupe_1455" data-name="Groupe 1455">
          <g id="Groupe_1454" data-name="Groupe 1454">
            <path id="Tracé_4231" data-name="Tracé 4231" d="M4197.263-2383.485c-12.534-.087-25.067.24-37.6.4l-18.8.15-9.4.075-.294,0a1.9,1.9,0,0,1-.461-.046,1.721,1.721,0,0,1-.868-.5,1.719,1.719,0,0,1-.445-.9,1.654,1.654,0,0,1-.024-.254l0-.156,0-.294-.019-2.35-.019-2.35,0-.588a2.081,2.081,0,0,1,.133-.882,1.8,1.8,0,0,1,1.652-1.11c12.534-.108,25.067-.331,37.6-.2l9.4.173,9.4.292,9.4.284a3.011,3.011,0,0,1,.641.044,1.227,1.227,0,0,1,.614.37,1.212,1.212,0,0,1,.3.643,5.3,5.3,0,0,1,.008.622l-.038,2.35-.038,2.35-.01.587a1.461,1.461,0,0,1-.1.624A1.114,1.114,0,0,1,4197.263-2383.485Zm0-.2a.892.892,0,0,0,.813-.56,4.04,4.04,0,0,0,.049-1.119l-.038-2.35-.038-2.35c.112-.829-.338-1.307-1.138-1.176l-9.4.283-9.4.293-9.4.172c-12.534.131-25.067-.092-37.6-.2a.207.207,0,0,0-.193.12,5.866,5.866,0,0,0-.025.86l-.019,2.35-.019,2.35,0,.294v.137l0,.039a.244.244,0,0,0,.062.137.258.258,0,0,0,.131.082.341.341,0,0,0,.122.011l.294,0,9.4.075,18.8.15C4172.2-2383.924,4184.729-2383.6,4197.263-2383.685Z"/>
            <path id="Tracé_4232" data-name="Tracé 4232" d="M4192.36-2383.585l-28.381.471-27.965.339.806-.883,3.6,37.9.894,9.475.408,4.479a.515.515,0,0,0,.282.278.767.767,0,0,0,.253.066l.069,0h.447l2.379.008,19.035.067,19.035.081,2.379.025.531,0a.975.975,0,0,0,.318-.074.73.73,0,0,0,.4-.385.4.4,0,0,0,.033-.116l.029-.266.059-.586.12-1.171.239-2.343.966-9.383c.645-6.263,1.3-12.538,2.006-18.874Zm0,0-1.39,18.8c-.442,6.3-.936,12.664-1.44,19.038l-.756,9.574-.192,2.4-.1,1.2-.048.6-.029.325a1.979,1.979,0,0,1-.111.459,2.27,2.27,0,0,1-1.209,1.279,2.542,2.542,0,0,1-.83.218l-.212.01-.149,0-.3,0-2.379.025-19.035.081-19.035.067-2.379.008h-.447l-.227-.009a2.748,2.748,0,0,1-.9-.226,2.48,2.48,0,0,1-1.329-1.385,2.12,2.12,0,0,1-.126-.506l-.035-.33-.055-.592-.112-1.185-.219-2.369-.828-9.482-3.292-37.928v-.013a.8.8,0,0,1,.729-.867l.079,0,28.38.339Z"/>
          </g>
          <path id="Tracé_4233" data-name="Tracé 4233" d="M4175.033-2399.3c-2.483-.049-4.967.016-7.451.1-2.484.109-4.967.21-7.451.281l-3.726.079-1.863.036-.872.021a.376.376,0,0,0-.274.193.333.333,0,0,0-.042.16l.007.416.018.932.037,1.863.072,3.725-.78-.78c3.887-.059,7.775-.219,11.662-.253,1.944,0,3.888,0,5.832.071,1.944.05,3.887.21,5.831.366l-.6.6.326-4.239.11-2.12a2.041,2.041,0,0,0-.081-.975A.893.893,0,0,0,4175.033-2399.3Zm0-.2a1.123,1.123,0,0,1,.986.548,1.171,1.171,0,0,1,.159.572l.015.53.111,2.12.325,4.239a.549.549,0,0,1-.5.589l-.091.007c-1.944.157-3.887.317-5.831.367-1.944.066-3.888.069-5.832.07-3.887-.034-7.775-.193-11.662-.252h-.027a.765.765,0,0,1-.754-.776v0l.073-3.725.036-1.863.018-.932.015-.514a1.609,1.609,0,0,1,.239-.719,1.629,1.629,0,0,1,1.244-.765c.428-.01.654.008.99.01l1.863.036,3.726.08c2.484.071,4.967.172,7.451.281C4170.066-2399.516,4172.55-2399.451,4175.033-2399.5Z"/>
        </g>
      </g>
    </g>
  </g>
</svg>
