<svg xmlns="http://www.w3.org/2000/svg" width="233.306" height="26.947" viewBox="0 0 233.306 26.947">
  <g id="logotype" transform="translate(-294.116 -736.472)">
    <g id="Groupe_1330" data-name="Groupe 1330">
      <path id="Tracé_3385" data-name="Tracé 3385" d="M314.087,740.912a2.826,2.826,0,0,1,1.439,2.365,2.406,2.406,0,0,1-2.432,2.465,3.015,3.015,0,0,1-1.747-.616,7.763,7.763,0,0,0-4.659-1.541,7.031,7.031,0,0,0-5.241,2.157,7.878,7.878,0,0,0,0,10.689,7.032,7.032,0,0,0,5.241,2.158,7.6,7.6,0,0,0,4.9-1.747,2.784,2.784,0,0,1,1.815-.72,2.3,2.3,0,0,1,2.4,2.4,2.649,2.649,0,0,1-.925,1.986c-2.021,1.953-4.761,2.912-8.255,2.912a12.327,12.327,0,0,1-8.941-3.494,12.446,12.446,0,0,1,.1-17.539,12.238,12.238,0,0,1,9.009-3.631A12.55,12.55,0,0,1,314.087,740.912Z" fill="#144877"/>
      <path id="Tracé_3386" data-name="Tracé 3386" d="M325.463,741.6v18.977a2.689,2.689,0,0,1-5.378,0V741.6a2.689,2.689,0,0,1,5.378,0Z" fill="#144877"/>
      <path id="Tracé_3387" data-name="Tracé 3387" d="M346.464,739.1a2.279,2.279,0,0,1,0,4.557h-4.9V760.61a2.621,2.621,0,1,1-5.241,0V743.654h-4.83a2.279,2.279,0,1,1,0-4.557Z" fill="#144877"/>
      <path id="Tracé_3388" data-name="Tracé 3388" d="M353.215,738.926a2.551,2.551,0,0,1,2.3,1.336l5.515,8.94,5.515-8.974a2.407,2.407,0,0,1,2.227-1.3,2.292,2.292,0,0,1,2.4,2.432,2.743,2.743,0,0,1-.445,1.507l-7.228,11.3v6.44a2.621,2.621,0,1,1-5.241,0v-6.44L351.091,743a2.782,2.782,0,0,1-.446-1.541A2.456,2.456,0,0,1,353.215,738.926Z" fill="#144877"/>
      <path id="Tracé_3389" data-name="Tracé 3389" d="M373.463,758.521l12.2-15.005H375.553a2.077,2.077,0,0,1-2.192-2.227,2.124,2.124,0,0,1,2.192-2.192h14.7a2.509,2.509,0,0,1,2.638,2.6,2.76,2.76,0,0,1-.72,1.885l-12.3,15.072h10.825a2.125,2.125,0,0,1,2.193,2.193,2.152,2.152,0,0,1-2.193,2.226H375.279a2.472,2.472,0,0,1-2.6-2.569A3.046,3.046,0,0,1,373.463,758.521Z" fill="#144877"/>
    </g>
    <g id="Groupe_1331" data-name="Groupe 1331">
      <path id="Tracé_3390" data-name="Tracé 3390" d="M399.762,745.2l-2.275-1.322a8.932,8.932,0,0,0,1.489-4.617v-2.793h3.831v2.509a7.607,7.607,0,0,1-.879,3.354A8.734,8.734,0,0,1,399.762,745.2Z" fill="#8cabe1"/>
    </g>
    <g id="Groupe_1332" data-name="Groupe 1332">
      <path id="Tracé_3391" data-name="Tracé 3391" d="M407.663,747.207a.875.875,0,0,1,.935-.911h9.78a.768.768,0,0,1,.791.791.781.781,0,0,1-.791.839h-8.845v6.425h7.647a.8.8,0,0,1,0,1.606h-7.647v6.208c.1,1.223-1.966,1.223-1.87,0Z" fill="#8cabe1"/>
      <path id="Tracé_3392" data-name="Tracé 3392" d="M421.131,757.012a6.092,6.092,0,0,1,1.87-4.531,6.254,6.254,0,0,1,4.6-1.869,6.263,6.263,0,0,1,6.4,6.328,6.1,6.1,0,0,1-1.87,4.53,6.694,6.694,0,0,1-9.181.048A6.086,6.086,0,0,1,421.131,757.012Zm3.116-3.38a4.534,4.534,0,0,0-1.318,3.332,4.652,4.652,0,0,0,1.342,3.356,4.5,4.5,0,0,0,3.308,1.342,4.447,4.447,0,0,0,3.284-1.342,4.652,4.652,0,0,0,1.343-3.356,4.555,4.555,0,0,0-1.343-3.332,4.441,4.441,0,0,0-3.284-1.343A4.552,4.552,0,0,0,424.247,753.632Z" fill="#8cabe1"/>
      <path id="Tracé_3393" data-name="Tracé 3393" d="M437.355,751.546c-.12-1.055,1.7-1.055,1.606,0l.072,2.062a4.681,4.681,0,0,1,4.363-3,.911.911,0,1,1,0,1.821c-2.661,0-4.243,1.75-4.243,5.13v4.722c.144,1.2-1.918,1.2-1.8,0Z" fill="#8cabe1"/>
      <path id="Tracé_3394" data-name="Tracé 3394" d="M465.423,752.026a5.714,5.714,0,0,1,1.342,4.075v6.184c.12,1.2-1.942,1.2-1.822,0v-5.609c0-2.948-1.414-4.387-3.356-4.387-2.181,0-3.787,1.414-3.811,4.483v5.513c.119,1.2-1.942,1.2-1.8,0v-5.609c0-2.948-1.439-4.387-3.38-4.387-2.182,0-3.788,1.414-3.811,4.483v5.513c.143,1.2-1.918,1.2-1.8,0V751.571a.827.827,0,1,1,1.654,0l.047,1.629a4.791,4.791,0,0,1,4.435-2.588,4.308,4.308,0,0,1,4.291,3.164,4.748,4.748,0,0,1,4.675-3.164A4.4,4.4,0,0,1,465.423,752.026Z" fill="#8cabe1"/>
      <path id="Tracé_3395" data-name="Tracé 3395" d="M480.638,762.358a.775.775,0,0,1-.815.839c-.48,0-.743-.289-.767-.839v-.624a5.355,5.355,0,0,1-4.171,1.582,5.557,5.557,0,0,1-3.524-1.055,3.346,3.346,0,0,1-1.295-2.685,3.382,3.382,0,0,1,1.319-2.709,5.379,5.379,0,0,1,3.548-1.126,5.254,5.254,0,0,1,3.883,1.367V756.1a4.01,4.01,0,0,0-.983-2.948,3.6,3.6,0,0,0-2.661-.984,5.126,5.126,0,0,0-3.02.935.952.952,0,0,1-.528.192.693.693,0,0,1-.743-.743.869.869,0,0,1,.432-.7,6.472,6.472,0,0,1,4.1-1.246c3.284,0,5.226,1.989,5.226,5.464Zm-1.7-2.853c0-1.415-1.319-2.493-3.62-2.493-2.11,0-3.428,1.078-3.428,2.493S473.206,762,475.316,762C477.617,762,478.936,760.919,478.936,759.505Z" fill="#8cabe1"/>
      <path id="Tracé_3396" data-name="Tracé 3396" d="M483.223,750.851h1.918V748.5c-.121-1.175,1.941-1.151,1.8,0v2.349h4.2a.7.7,0,0,1,.719.743.706.706,0,0,1-.719.719h-4.2v6.832c0,1.654.839,2.517,2.254,2.517a6.539,6.539,0,0,0,1.2-.12c.408-.072.6-.12.624-.12a.719.719,0,0,1,.791.743.853.853,0,0,1-.672.839,6.71,6.71,0,0,1-2.253.312c-2.325,0-3.739-1.367-3.739-3.86v-7.143h-1.918a.707.707,0,0,1-.72-.719A.7.7,0,0,1,483.223,750.851Z" fill="#8cabe1"/>
      <path id="Tracé_3397" data-name="Tracé 3397" d="M494.51,747.351a1.258,1.258,0,0,1,1.271-1.246,1.237,1.237,0,0,1,1.246,1.246,1.259,1.259,0,0,1-2.517,0Zm2.181,4.291v10.619a.923.923,0,1,1-1.845,0V751.642a.923.923,0,0,1,1.845,0Z" fill="#8cabe1"/>
      <path id="Tracé_3398" data-name="Tracé 3398" d="M500.165,757.012a6.093,6.093,0,0,1,1.871-4.531,6.254,6.254,0,0,1,4.6-1.869,6.265,6.265,0,0,1,6.4,6.328,6.093,6.093,0,0,1-1.871,4.53,6.694,6.694,0,0,1-9.181.048A6.09,6.09,0,0,1,500.165,757.012Zm3.117-3.38a4.535,4.535,0,0,0-1.319,3.332,4.652,4.652,0,0,0,1.343,3.356,4.5,4.5,0,0,0,3.308,1.342,4.449,4.449,0,0,0,3.284-1.342,4.652,4.652,0,0,0,1.343-3.356,4.555,4.555,0,0,0-1.343-3.332,4.442,4.442,0,0,0-3.284-1.343A4.551,4.551,0,0,0,503.282,753.632Z" fill="#8cabe1"/>
      <path id="Tracé_3399" data-name="Tracé 3399" d="M526.05,752.049a5.743,5.743,0,0,1,1.367,4.123v6.113c.12,1.2-1.942,1.2-1.8,0v-5.513c0-3-1.486-4.483-3.5-4.483-2.3,0-3.931,1.51-3.931,4.842v5.154c.143,1.2-1.918,1.2-1.8,0V751.571a.827.827,0,1,1,1.654,0l.048,1.725a4.677,4.677,0,0,1,4.554-2.684A4.454,4.454,0,0,1,526.05,752.049Z" fill="#8cabe1"/>
    </g>
  </g>
</svg>
