<svg xmlns="http://www.w3.org/2000/svg" width="353.507" height="275.627" viewBox="0 0 353.507 275.627">
  <g id="fond_gauche" data-name="fond gauche" transform="translate(1507.923 -358.402)">
    <g id="Calque_3" data-name="Calque 3" transform="translate(-1503.628 507.542)">
      <ellipse id="Ellipse_16" data-name="Ellipse 16" cx="141.793" cy="4.632" rx="141.793" ry="4.632" transform="translate(53.023 117.222)" fill="#d3c9ae"/>
      <ellipse id="Ellipse_17" data-name="Ellipse 17" cx="25.714" cy="2.363" rx="25.714" ry="2.363" transform="translate(13.115 109.686)" fill="#d3c9ae"/>
      <path id="Tracé_283" data-name="Tracé 283" d="M-1461.792,567.965s24.131-18.272,23.484-25.215-8.108-12.924-8.108-12.924,13.651-2.886,12.3-7.192-8.244-8.357-8.244-8.357,11.625-14.394,5.891-17a8.855,8.855,0,0,0-8.737.111c0-9.636-1.288-19.932-11.11-19.932s-14.783,8.324-12.486,19.7c-2.3-11.373-12.745-2.919-15.917,12.967-3.091,15.481,6.775,21.837,6.775,21.837s-9.234,10.793-1.13,23.022C-1470.081,568.553-1461.792,567.965-1461.792,567.965Z" transform="translate(1509.34 -477.455)" fill="#c0edbc"/>
      <path id="Tracé_284" data-name="Tracé 284" d="M-1483.4,569.03s24.131-18.271,23.483-25.213-8.108-12.924-8.108-12.924,13.651-2.886,12.3-7.192-8.245-8.357-8.245-8.357,11.625-14.394,5.891-17a8.854,8.854,0,0,0-8.736.111c0-9.636-7.062,12.963-16.478,10.168-5.124-1.52-11.817,1.9-11.817,1.9l-2.99,7.748c-11.485.992-3.812,5.633-4.729,11.016-.84,4.927-1.577,11.371-1.577,11.371s4.9-.36,3.182,8.834C-1504.213,565.5-1483.4,569.03-1483.4,569.03Z" transform="translate(1504.494 -472.756)" fill="#c0edbc"/>
      <rect id="Rectangle_25" data-name="Rectangle 25" width="7.939" height="33.713" rx="1.289" transform="translate(141.944 87.441)" fill="#b1c6e5"/>
      <rect id="Rectangle_26" data-name="Rectangle 26" width="7.939" height="30.641" rx="1.289" transform="translate(64.542 90.513)" fill="#b1c6e5"/>
      <path id="Rectangle_27" data-name="Rectangle 27" d="M6.484,0H8.449A1.289,1.289,0,0,1,9.738,1.289v50.38a1.289,1.289,0,0,1-1.289,1.289H1.289A1.289,1.289,0,0,1,0,51.669V6.484A6.484,6.484,0,0,1,6.484,0Z" transform="translate(165.002 6.417)" fill="#b1c6e5"/>
      <path id="Rectangle_28" data-name="Rectangle 28" d="M6.484,0H8.449A1.289,1.289,0,0,1,9.738,1.289V65.808A1.289,1.289,0,0,1,8.449,67.1H1.289A1.289,1.289,0,0,1,0,65.808V6.484A6.484,6.484,0,0,1,6.484,0Z" transform="translate(226.243 54.475)" fill="#b1c6e5"/>
      <path id="Tracé_285" data-name="Tracé 285" d="M-1256.8,572.9s18-1.249,18.277-6.212c.844-15.192-6.081-12.151-6.081-12.151s9.732-7.5,8.793-10.584c-3.049-10.022-14.175-4.349-14.175-4.349s8.115-9.914,1.73-13.142-2.4-4.022-7.519-.924c-.51-9.214-7.589-8.193-7.589-8.193s-2.86.982-8.247,2.408c-2.663,2.1-10.917,6.974-4.917,16.493,3.85,6.106-2.138,8.5-2.138,8.5a102.352,102.352,0,0,1,4.386,20.591C-1273.181,577.047-1256.8,572.9-1256.8,572.9Z" transform="translate(1561.564 -467.382)" fill="#c0edbc"/>
      <path id="Tracé_286" data-name="Tracé 286" d="M-1335.482,524.852l-37.739,30.5-77.955.636-2.516-7.651,38.968-22.3Z" transform="translate(1517.333 -465.477)" fill="#ea9d9d"/>
    </g>
    <g id="Calque_2" data-name="Calque 2" transform="translate(-1507.923 358.402)">
      <path id="Tracé_287" data-name="Tracé 287" d="M-1372.4,534.559c-.5-3.417-.819-6.833-1.073-10.251-.271-3.416-.442-6.834-.569-10.25l-.159-5.125-.055-5.125c-.05-3.417.036-6.834.076-10.251l0-.145.009-.046c1.243-6.738,6.757-11.243,12.526-12.905a32.073,32.073,0,0,1,8.792-1.268c2.963-.04,5.772.264,8.589.407,5.647.329,11.3.566,16.969.811,2.834.115,5.671.248,8.512.481a31.552,31.552,0,0,1,4.247.581,8.381,8.381,0,0,1,2.043.691,3.191,3.191,0,0,1,.868.648,2.145,2.145,0,0,1,.464.96,2.208,2.208,0,0,0-1.417-1.428,8.074,8.074,0,0,0-2.028-.482,38.313,38.313,0,0,0-4.213-.217c-2.822-.017-5.656.088-8.49.135-5.67.143-11.352.214-17.036.145-2.85,0-5.7-.159-8.409-.009a29.206,29.206,0,0,0-7.933,1.479,16.76,16.76,0,0,0-6.568,3.982,13.045,13.045,0,0,0-2.219,3.023,12.1,12.1,0,0,0-.743,1.7,8.992,8.992,0,0,0-.416,1.649l.011-.193c.04,3.417.127,6.834.076,10.251l-.055,5.125-.159,5.125c-.126,3.416-.3,6.834-.569,10.25C-1371.582,527.726-1371.9,531.142-1372.4,534.559Z" transform="translate(1541.699 -327.877)"/>
      <path id="Tracé_288" data-name="Tracé 288" d="M-1323.515,484.654c.561,7.059.919,14.117,1.189,21.175s.447,14.116.552,21.175c.083,3.529.073,7.058.1,10.587s.047,7.058.01,10.587c-.011,7.058-.129,14.117-.276,21.175l-1.935-1.536a10.325,10.325,0,0,1,4.893.2,5.472,5.472,0,0,1,2.364,1.452,5.054,5.054,0,0,1,1.248,2.5,8.228,8.228,0,0,1,.069,2.41l-.153,2.056-.237,4.138-.4,8.306-.452,8.323c-.287-2.767-.515-5.538-.713-8.312-.169-2.774-.351-5.55-.441-8.332l-.108-4.182-.019-2.1-.016-.945a4.693,4.693,0,0,0-.125-.785,2.292,2.292,0,0,0-1.842-1.744,7.5,7.5,0,0,0-3.346.079,1.565,1.565,0,0,1-1.891-1.152,1.513,1.513,0,0,1-.044-.328v-.054c-.146-7.058-.266-14.117-.277-21.175-.037-3.529-.015-7.058.011-10.587s.018-7.058.1-10.587q.159-10.589.554-21.175C-1324.434,498.771-1324.075,491.713-1323.515,484.654Z" transform="translate(1554.053 -326.496)"/>
      <path id="Tracé_289" data-name="Tracé 289" d="M-1333.609,578.393a31.519,31.519,0,0,1-1.055-4.362c-.257-1.454-.438-2.909-.57-4.362a66.512,66.512,0,0,1-.187-8.725l1.646,1.805-6.2-.762q-1.552-.192-3.1-.3a12.537,12.537,0,0,0-1.518.013c-.47.075-1.018.111-1.221.651a.945.945,0,0,1,.229-.853,2.663,2.663,0,0,1,.7-.592,7.082,7.082,0,0,1,1.587-.725,18.166,18.166,0,0,1,3.277-.76,35.527,35.527,0,0,1,6.577-.279l1.575.07.072,1.734a67,67,0,0,1-.187,8.725c-.132,1.453-.313,2.908-.57,4.362A31.545,31.545,0,0,1-1333.609,578.393Z" transform="translate(1548.884 -307.682)"/>
      <path id="Tracé_290" data-name="Tracé 290" d="M-1345.436,576.043a9.23,9.23,0,0,1-1.472-3.162,12.486,12.486,0,0,1-.406-3.161,12.257,12.257,0,0,1,.4-3.161,9.155,9.155,0,0,1,1.477-3.162,9.177,9.177,0,0,1,1.478,3.162,12.375,12.375,0,0,1,.4,3.161,12.541,12.541,0,0,1-.406,3.161A9.257,9.257,0,0,1-1345.436,576.043Z" transform="translate(1548.512 -306.596)"/>
      <path id="Tracé_291" data-name="Tracé 291" d="M-1364.189,579.872a57.56,57.56,0,0,1-1.048-6.18c-.264-2.059-.446-4.119-.576-6.178-.263-4.12-.306-8.239-.187-12.359l1.634,1.8c-2.731-.328-5.541-.634-8.307-.859-1.388-.142-2.772-.189-4.148-.2a12.78,12.78,0,0,0-2.019.175c-.624.147-1.334.336-1.531,1.072a1.308,1.308,0,0,1,.3-1.095,3.232,3.232,0,0,1,.9-.76,8.9,8.9,0,0,1,2.095-.9,25.885,25.885,0,0,1,4.342-.866q2.18-.243,4.355-.276c1.456-.025,2.883,0,4.359.1l1.586.1.049,1.7c.119,4.12.076,8.239-.187,12.359-.13,2.06-.313,4.119-.578,6.178A57.313,57.313,0,0,1-1364.189,579.872Z" transform="translate(1540.151 -309.161)"/>
      <path id="Tracé_292" data-name="Tracé 292" d="M-1378.987,576.684a16.116,16.116,0,0,1-1.473-4.477,24.822,24.822,0,0,1-.406-4.477,24.393,24.393,0,0,1,.4-4.478,15.934,15.934,0,0,1,1.478-4.477,15.918,15.918,0,0,1,1.477,4.477,24.287,24.287,0,0,1,.4,4.478,24.833,24.833,0,0,1-.406,4.477A16.108,16.108,0,0,1-1378.987,576.684Z" transform="translate(1540.033 -307.764)"/>
      <line id="Ligne_108" data-name="Ligne 108" y2="6.857" transform="translate(219.936 167.944)" fill="none" stroke="#000" stroke-linecap="round" stroke-miterlimit="10" stroke-width="3"/>
      <line id="Ligne_109" data-name="Ligne 109" y2="6.857" transform="translate(204.31 167.944)" fill="none" stroke="#000" stroke-linecap="round" stroke-miterlimit="10" stroke-width="3"/>
      <line id="Ligne_110" data-name="Ligne 110" y2="6.857" transform="translate(188.683 167.944)" fill="none" stroke="#000" stroke-linecap="round" stroke-miterlimit="10" stroke-width="3"/>
      <line id="Ligne_111" data-name="Ligne 111" y2="6.857" transform="translate(219.936 194.653)" fill="none" stroke="#000" stroke-linecap="round" stroke-miterlimit="10" stroke-width="3"/>
      <line id="Ligne_112" data-name="Ligne 112" y2="6.857" transform="translate(204.31 194.653)" fill="none" stroke="#000" stroke-linecap="round" stroke-miterlimit="10" stroke-width="3"/>
      <line id="Ligne_113" data-name="Ligne 113" y2="6.857" transform="translate(129.757 250.009)" fill="none" stroke="#000" stroke-linecap="round" stroke-miterlimit="10" stroke-width="3"/>
      <line id="Ligne_114" data-name="Ligne 114" y2="6.857" transform="translate(114.13 250.009)" fill="none" stroke="#000" stroke-linecap="round" stroke-miterlimit="10" stroke-width="3"/>
      <line id="Ligne_115" data-name="Ligne 115" y2="6.857" transform="translate(95.145 250.009)" fill="none" stroke="#000" stroke-linecap="round" stroke-miterlimit="10" stroke-width="3"/>
      <line id="Ligne_116" data-name="Ligne 116" y2="6.857" transform="translate(79.518 250.009)" fill="none" stroke="#000" stroke-linecap="round" stroke-miterlimit="10" stroke-width="3"/>
      <line id="Ligne_117" data-name="Ligne 117" y2="6.857" transform="translate(188.683 194.653)" fill="none" stroke="#000" stroke-linecap="round" stroke-miterlimit="10" stroke-width="3"/>
      <line id="Ligne_118" data-name="Ligne 118" y2="6.857" transform="translate(204.31 221.363)" fill="none" stroke="#000" stroke-linecap="round" stroke-miterlimit="10" stroke-width="3"/>
      <line id="Ligne_119" data-name="Ligne 119" y2="6.857" transform="translate(239.503 223.236)" fill="none" stroke="#000" stroke-linecap="round" stroke-miterlimit="10" stroke-width="3"/>
      <line id="Ligne_120" data-name="Ligne 120" y2="6.857" transform="translate(245.767 251.198)" fill="none" stroke="#000" stroke-linecap="round" stroke-miterlimit="10" stroke-width="3"/>
      <line id="Ligne_121" data-name="Ligne 121" y2="6.857" transform="translate(259.73 251.198)" fill="none" stroke="#000" stroke-linecap="round" stroke-miterlimit="10" stroke-width="3"/>
      <line id="Ligne_122" data-name="Ligne 122" y2="6.857" transform="translate(273.693 251.198)" fill="none" stroke="#000" stroke-linecap="round" stroke-miterlimit="10" stroke-width="3"/>
      <line id="Ligne_123" data-name="Ligne 123" y2="6.857" transform="translate(253.466 223.236)" fill="none" stroke="#000" stroke-linecap="round" stroke-miterlimit="10" stroke-width="3"/>
      <path id="Tracé_293" data-name="Tracé 293" d="M-1447.528,482.394a3.718,3.718,0,0,0-2.193-3.089,10.738,10.738,0,0,0-3.888-1.19,11.924,11.924,0,0,0-4.04.174,7.75,7.75,0,0,0-1.858.68c-.628.309-1.23.636-1.813.986a12.109,12.109,0,0,0-5.032,5.96,29.714,29.714,0,0,0-1.865,7.912l-.383,3.427-1.84-2.971a3.907,3.907,0,0,0-1.747-1.617,2.927,2.927,0,0,0-2.192.165,11.153,11.153,0,0,0-4.175,3.8,24.677,24.677,0,0,0-4.252,11.248,29.123,29.123,0,0,0,1.429,12.015,49.88,49.88,0,0,0,5.278,11.113l1.152,1.853-1.913.936a4.733,4.733,0,0,0-1.972,2.8,18.537,18.537,0,0,0-.777,4.458,36.192,36.192,0,0,0,.732,9.518,14.2,14.2,0,0,0,.623,2.174,20.029,20.029,0,0,0,.942,2.148,25.776,25.776,0,0,0,2.515,4.073,21.106,21.106,0,0,0,7.25,6.444l.008,0a.189.189,0,0,1,.084.253.19.19,0,0,1-.212.1,18.927,18.927,0,0,1-8.845-5.314,26.3,26.3,0,0,1-3.316-4.123,23.065,23.065,0,0,1-1.313-2.354,16.113,16.113,0,0,1-.92-2.617,37.789,37.789,0,0,1-1.225-10.475,20.312,20.312,0,0,1,.821-5.462,10.847,10.847,0,0,1,1.288-2.773,6.843,6.843,0,0,1,2.554-2.334l-.759,2.789a43.19,43.19,0,0,1-3.178-5.889,40.731,40.731,0,0,1-2.267-6.307,33.291,33.291,0,0,1-.982-13.423,27.626,27.626,0,0,1,5.066-12.465,13.579,13.579,0,0,1,5.4-4.567,6.55,6.55,0,0,1,1.962-.452,5.3,5.3,0,0,1,2.115.351,6.311,6.311,0,0,1,2.891,2.682l-2.224.456a31.744,31.744,0,0,1,2.474-8.393,14.865,14.865,0,0,1,2.543-3.7,13.133,13.133,0,0,1,3.6-2.646c.653-.331,1.315-.629,1.975-.9a9.278,9.278,0,0,1,2.15-.646,12.913,12.913,0,0,1,4.381.055,11.468,11.468,0,0,1,4.08,1.508,5.77,5.77,0,0,1,1.621,1.5,3.368,3.368,0,0,1,.63,2.127.189.189,0,0,1-.2.177A.188.188,0,0,1-1447.528,482.394Z" transform="translate(1513.434 -328.417)"/>
      <path id="Tracé_294" data-name="Tracé 294" d="M-1467.173,542.061a48.608,48.608,0,0,1,1.562,8.034c.312,2.677.482,5.355.544,8.03.078,2.686-.026,5.332-.064,7.974a46.914,46.914,0,0,1-.826,8.141,45.988,45.988,0,0,1-2.121-7.913,49.947,49.947,0,0,1-.745-8.118,73.356,73.356,0,0,1,.267-8.074A45.738,45.738,0,0,1-1467.173,542.061Z" transform="translate(1517.8 -311.988)"/>
      <path id="Tracé_295" data-name="Tracé 295" d="M-1484.974,547.731a30.219,30.219,0,0,1,1.56,6.255,52.39,52.39,0,0,1,.54,6.251c.075,2.095-.03,4.138-.077,6.18a29.518,29.518,0,0,1-.844,6.39,28.579,28.579,0,0,1-2.1-6.107,31.351,31.351,0,0,1-.737-6.359,45.187,45.187,0,0,1,.271-6.3A28.641,28.641,0,0,1-1484.974,547.731Z" transform="translate(1513.3 -310.555)"/>
      <path id="Tracé_296" data-name="Tracé 296" d="M-1462.168,562.783c2.558-2.4,5.015-4.882,7.383-7.416a63.151,63.151,0,0,0,6.448-8.012,19.647,19.647,0,0,0,2.252-4.328,10.641,10.641,0,0,0,.312-1.09c.054-.356.12-.693.143-1.092a11.437,11.437,0,0,0-.055-2.28,10.025,10.025,0,0,0-1.538-4.2,11.838,11.838,0,0,0-1.417-1.786,10.476,10.476,0,0,0-1.657-1.411l-3.663-2.375,4.386-.873a12.113,12.113,0,0,0,5.288-2.394,6.822,6.822,0,0,0,2.5-4.71c.253-1.983.063-4.059-.827-5.313a2.587,2.587,0,0,0-1.643-1.122,4.3,4.3,0,0,0-2.349.309l-5.452,2.12,3.288-4.813c1.289-1.888,2.566-3.781,3.644-5.75a22.348,22.348,0,0,0,2.416-5.984,4.558,4.558,0,0,0-.094-2.571,2.406,2.406,0,0,0-1.74-1.338,10.166,10.166,0,0,0-6.052.676l-1.979.844.524-2a27.07,27.07,0,0,0,.775-4.437,14.209,14.209,0,0,0-.243-4.452,5.25,5.25,0,0,0-2.358-3.5,7.339,7.339,0,0,0-4.453-.709,7.523,7.523,0,0,1,4.741.133,6.162,6.162,0,0,1,3.207,3.731,15.569,15.569,0,0,1,.743,4.852,24.183,24.183,0,0,1-.43,4.867l-1.454-1.152a13.223,13.223,0,0,1,3.593-1.305,9.929,9.929,0,0,1,3.969-.118,5.874,5.874,0,0,1,2.094.838,4.8,4.8,0,0,1,1.625,1.811,7.34,7.34,0,0,1,.567,4.3,23.251,23.251,0,0,1-2.462,7.087,60.231,60.231,0,0,1-3.647,6.207l-2.163-2.693a7.878,7.878,0,0,1,4.38-.539,6.29,6.29,0,0,1,3.955,2.564,9.149,9.149,0,0,1,1.532,3.994,14.048,14.048,0,0,1,.01,3.925,10.952,10.952,0,0,1-1.233,3.918,10.877,10.877,0,0,1-2.647,3.151,13.857,13.857,0,0,1-3.389,2.018,14.914,14.914,0,0,1-3.767,1.069l.723-3.248a13.552,13.552,0,0,1,2.274,2.039,15.187,15.187,0,0,1,1.756,2.374,13.343,13.343,0,0,1,1.845,5.626,13.022,13.022,0,0,1-.073,2.95,12.33,12.33,0,0,1-.3,1.488,13.683,13.683,0,0,1-.5,1.4,21.949,21.949,0,0,1-2.886,4.773,54.612,54.612,0,0,1-7.476,7.619A78.652,78.652,0,0,1-1462.168,562.783Z" transform="translate(1519.486 -327.049)"/>
      <path id="Tracé_297" data-name="Tracé 297" d="M-1483.336,566.885a34.645,34.645,0,0,1-8.612-2.629,23.326,23.326,0,0,1-7.613-5.281,12.085,12.085,0,0,1-3.412-9.231,9.86,9.86,0,0,1,2.1-4.832,13.083,13.083,0,0,1,1.77-1.844,12.9,12.9,0,0,1,2.132-1.507l.495,3.325a16.711,16.711,0,0,1-3.275-.958,17.186,17.186,0,0,1-3.022-1.55,11.6,11.6,0,0,1-4.629-5.441,8.9,8.9,0,0,1-.495-3.783,8.114,8.114,0,0,1,1.2-3.716,6.867,6.867,0,0,1,3.105-2.642,9.173,9.173,0,0,1,3.719-.678l-1.157,3.206a15.574,15.574,0,0,1-3.5-4.053,8.431,8.431,0,0,1-1.194-5.643,7.177,7.177,0,0,1,3.247-4.812,6.867,6.867,0,0,1,5.541-.834L-1498.2,515a10.687,10.687,0,0,1,1.61-5.218,8.881,8.881,0,0,1,4.069-3.481,12.4,12.4,0,0,1,5.106-.854,22.883,22.883,0,0,1,4.987.8,23.792,23.792,0,0,0-4.97-.158,11.487,11.487,0,0,0-4.609,1.28,7.46,7.46,0,0,0-3.163,3.226,9.559,9.559,0,0,0-.988,4.354l.021,1.215-1.28-.2a4.691,4.691,0,0,0-3.572,1.015,4.311,4.311,0,0,0-1.7,3.062,5.612,5.612,0,0,0,1.037,3.472,13.545,13.545,0,0,0,2.9,3.008l3.96,3.222-5.117-.015a3.969,3.969,0,0,0-3.667,1.67,5.224,5.224,0,0,0-.313,4.238,7.948,7.948,0,0,0,3.128,3.679,15.576,15.576,0,0,0,4.9,2.076l4.705,1.136-4.209,2.188a10.234,10.234,0,0,0-2.9,2.318,6.577,6.577,0,0,0-1.556,3.169,7.783,7.783,0,0,0,.332,3.642,12.063,12.063,0,0,0,1.875,3.5,23.6,23.6,0,0,0,6.371,5.58A48.663,48.663,0,0,0-1483.336,566.885Z" transform="translate(1507.923 -321.242)"/>
      <path id="Tracé_298" data-name="Tracé 298" d="M-1259.758,554.462a29.388,29.388,0,0,1,1.15,6.3,42.339,42.339,0,0,1,.068,6.28,43.457,43.457,0,0,1-.888,6.212,29.528,29.528,0,0,1-1.938,6.1,28.567,28.567,0,0,1-1-6.336,51.749,51.749,0,0,1,.073-6.226,54,54,0,0,1,.737-6.177A28.279,28.279,0,0,1-1259.758,554.462Z" transform="translate(1569.965 -308.854)"/>
      <path id="Tracé_299" data-name="Tracé 299" d="M-1254.619,573a18.127,18.127,0,0,0,6.936-1.888,9.18,9.18,0,0,0,4.418-4.754,10.531,10.531,0,0,0,.72-3.172,8.511,8.511,0,0,0-.244-3.054,6.631,6.631,0,0,0-1.448-2.559,7.547,7.547,0,0,0-1.112-1.027,6.961,6.961,0,0,0-1.2-.748l-2.977-1.354,2.845-1.8a16.924,16.924,0,0,0,5.022-4.616,6.322,6.322,0,0,0,1.072-2.751,7.658,7.658,0,0,0-.443-2.963,4.434,4.434,0,0,0-4.114-3.241,14.869,14.869,0,0,0-6.631,1.389l-4.9,2.019,2.634-4.581a18.264,18.264,0,0,0,1.852-4.214,11.215,11.215,0,0,0,.415-4.367,4.369,4.369,0,0,0-1.794-3.27,5.657,5.657,0,0,0-4.068-.561l-1.052.185-.184-.952a16.969,16.969,0,0,0-.892-3.007,9.331,9.331,0,0,0-1.587-2.677,4.447,4.447,0,0,0-2.561-1.575,5.8,5.8,0,0,0-3.2.372,5.972,5.972,0,0,1,3.268-1.013,5.367,5.367,0,0,1,3.322,1.365,10.725,10.725,0,0,1,2.227,2.8,15.2,15.2,0,0,1,1.413,3.281l-1.236-.767a7.789,7.789,0,0,1,5.844.256,6.249,6.249,0,0,1,2.366,2.171,8.551,8.551,0,0,1,1.157,2.849,13.3,13.3,0,0,1-.163,5.729,19.664,19.664,0,0,1-1.99,5.185l-2.269-2.561a18.277,18.277,0,0,1,8.348-1.728,8.427,8.427,0,0,1,4.556,1.684,8.6,8.6,0,0,1,2.781,3.982,11.76,11.76,0,0,1,.544,2.207,8.725,8.725,0,0,1,.063,2.42,9.984,9.984,0,0,1-1.715,4.369,16.794,16.794,0,0,1-2.9,3.209,20.671,20.671,0,0,1-3.448,2.458l-.13-3.158a10.068,10.068,0,0,1,1.892,1.263,10.978,10.978,0,0,1,1.533,1.546,9.943,9.943,0,0,1,1.986,3.922,10.263,10.263,0,0,1,.089,4.284,13.26,13.26,0,0,1-1.314,3.9,10.627,10.627,0,0,1-6.178,5.072A15.242,15.242,0,0,1-1254.619,573Z" transform="translate(1568.778 -318.369)"/>
      <path id="Tracé_300" data-name="Tracé 300" d="M-1328.241,481.518a71.123,71.123,0,0,1-1.263-8.319l1.488,1.451a50.667,50.667,0,0,1-7.885.694c-1.318,0-2.637-.083-3.955-.144l-3.956-.138-7.908-.219c-2.636-.064-5.274-.212-7.911-.313l.494-.507-.319,5.61a.186.186,0,0,1-.2.177.189.189,0,0,1-.178-.177l-.319-5.61-.026-.461.521-.046c2.628-.239,5.255-.524,7.883-.725l7.887-.63,3.942-.343c1.314-.13,2.627-.283,3.942-.349a50.529,50.529,0,0,1,7.911.283l1.625.165-.137,1.284a71.2,71.2,0,0,1-1.263,8.319.192.192,0,0,1-.23.144A.192.192,0,0,1-1328.241,481.518Z" transform="translate(1545.261 -329.842)"/>
      <path id="Tracé_301" data-name="Tracé 301" d="M-1395.625,525.151c-.631-3.672-.966-7.345-1.264-11.016l1.647,1.438a3.628,3.628,0,0,1-1.942.755c-.68,0-1.391-.211-2.071-.205-1.368-.041-2.753-.214-4.14-.4l.44-.5-.321,7.43a.188.188,0,0,1-.2.18.191.191,0,0,1-.181-.18l-.319-7.43-.014-.311.454-.192a41.177,41.177,0,0,1,3.885-1.486c.658-.177,1.285-.569,1.942-.75a3.647,3.647,0,0,1,2.072.211l1.716.586-.069.853c-.3,3.672-.633,7.345-1.264,11.016a.191.191,0,0,1-.221.155A.191.191,0,0,1-1395.625,525.151Z" transform="translate(1534.191 -319.481)"/>
      <path id="Tracé_302" data-name="Tracé 302" d="M-1309.543,520.291a89.637,89.637,0,0,1-1.264-9.335l1.651,1.438a2.615,2.615,0,0,1-1.6.714c-.568-.014-1.164-.238-1.731-.247a29.6,29.6,0,0,1-3.46-.48l.438-.5-.321,6.3a.187.187,0,0,1-.2.178.19.19,0,0,1-.179-.178l-.319-6.3-.014-.282.452-.221a29.568,29.568,0,0,1,3.2-1.4c.542-.162,1.056-.54,1.6-.708a2.622,2.622,0,0,1,1.731.252l1.719.735-.068.7a88.986,88.986,0,0,1-1.264,9.335.19.19,0,0,1-.225.15A.193.193,0,0,1-1309.543,520.291Z" transform="translate(1556.29 -320.292)"/>
      <path id="Tracé_303" data-name="Tracé 303" d="M-1321.108,522.036a68.346,68.346,0,0,1,13.468-1.756,20.749,20.749,0,0,1,3.515.221,9.173,9.173,0,0,1,1.847.466c.562.213,1.074.423,1.621.663a17.1,17.1,0,0,1,5.887,4.179c3.335,3.655,4.892,8.362,5.814,12.9a66.232,66.232,0,0,1,.985,13.784l-1.865-1.915a95.874,95.874,0,0,1,9.776.448,49.463,49.463,0,0,1,4.909.688c.818.153,1.64.347,2.463.564.415.115.826.229,1.246.372a11.158,11.158,0,0,1,1.374.537l.853.4.06.955c.176,2.8.314,5.6.432,8.4.135,2.8.251,5.6.328,8.41.188,5.61.293,11.224.225,16.854-.948-5.549-1.725-11.112-2.419-16.681-.365-2.782-.69-5.57-.994-8.357-.323-2.786-.628-5.575-.892-8.366l.913,1.357c-.139-.051-.563-.2-.884-.284-.344-.1-.709-.185-1.071-.269-.735-.159-1.483-.3-2.246-.412-1.526-.215-3.068-.424-4.63-.542-1.56-.134-3.132-.211-4.706-.264l-4.738-.079-1.924-.033.058-1.883a70.534,70.534,0,0,0-.7-13.068c-.687-4.239-1.988-8.411-4.541-11.643a15.621,15.621,0,0,0-4.774-3.9c-.462-.253-.969-.516-1.44-.742a6.986,6.986,0,0,0-1.382-.475,22.924,22.924,0,0,0-3.177-.5A102.462,102.462,0,0,0-1321.108,522.036Z" transform="translate(1555.135 -317.493)"/>
      <path id="Tracé_304" data-name="Tracé 304" d="M-1345.968,587.32c-.5-5.12-.821-10.24-1.075-15.359-.269-5.12-.441-10.24-.568-15.36l-.159-7.68-.055-7.68c-.05-5.12.035-10.24.077-15.36l1.681,1.778c-5.481-.392-10.99-.645-16.479-.935s-10.992-.262-16.522-.338c-11.044-.123-22.088-.309-33.128-.674,11.04-.625,22.077-1.074,33.112-1.459,5.508-.168,11.035-.445,16.6-.465,5.549-.059,11.073.133,16.617.317l1.667.055.014,1.721c.041,5.12.127,10.24.076,15.36l-.055,7.68-.159,7.68c-.126,5.12-.3,10.24-.568,15.36C-1345.149,577.08-1345.471,582.2-1345.968,587.32Z" transform="translate(1532.115 -316.609)"/>
      <path id="Tracé_305" data-name="Tracé 305" d="M-1344.41,531.658c-4.876,4.188-9.85,8.237-14.881,12.209-2.5,2-5.037,3.965-7.573,5.924s-5.076,3.91-7.637,5.835l-.41.308-.579.014c-6.475.153-12.949.147-19.425.2-6.474-.048-12.949-.03-19.423-.184q-9.713-.152-19.425-.56c-6.475-.253-12.949-.609-19.424-1.132,6.475-.525,12.949-.881,19.424-1.134s12.949-.459,19.425-.56c6.474-.154,12.949-.137,19.423-.184,6.475.049,12.949.044,19.425.2l-.988.321c2.62-1.843,5.248-3.674,7.9-5.468,2.645-1.809,5.29-3.617,7.967-5.38C-1355.279,538.494-1349.895,535.008-1344.41,531.658Z" transform="translate(1521.756 -314.617)"/>
      <path id="Tracé_306" data-name="Tracé 306" d="M-1412.2,524.91c-5.938,3.767-11.957,7.318-17.939,10.894-2.971,1.821-5.98,3.564-8.9,5.432a102.176,102.176,0,0,0-8.507,5.754c-.663.507-1.312,1.022-1.9,1.555a8.631,8.631,0,0,0-1.412,1.55,1.586,1.586,0,0,0-.128.233c.009,0-.021.038,0-.007s-.009-.114-.005.056l-.011,1.31c-.01.874,0,1.749-.034,2.622-.105,3.5-.139,6.991-.313,10.488-.276,6.991-.684,13.983-1.467,20.974-.782-6.991-1.19-13.983-1.466-20.974-.176-3.5-.208-6.991-.313-10.488-.029-.873-.024-1.748-.035-2.622l-.01-1.31a4.153,4.153,0,0,1,.039-.6,3.528,3.528,0,0,1,.155-.64,4.925,4.925,0,0,1,.446-.942,11.731,11.731,0,0,1,2.034-2.381c.7-.653,1.407-1.241,2.128-1.8a122.086,122.086,0,0,1,18.295-10.773A181.583,181.583,0,0,1-1412.2,524.91Z" transform="translate(1521.388 -316.322)"/>
      <path id="Tracé_307" data-name="Tracé 307" d="M-1391.323,549.706a43.785,43.785,0,0,1,1.472,7.764,73.951,73.951,0,0,1,.406,7.766,72.644,72.644,0,0,1-.4,7.766,43.152,43.152,0,0,1-1.477,7.765A43.144,43.144,0,0,1-1392.8,573a72.581,72.581,0,0,1-.4-7.766,74.017,74.017,0,0,1,.406-7.766A43.689,43.689,0,0,1-1391.323,549.706Z" transform="translate(1536.915 -310.056)"/>
      <path id="Tracé_308" data-name="Tracé 308" d="M-1384.332,573.492" transform="translate(1539.157 -304.045)" fill="none" stroke="#000" stroke-linecap="round" stroke-miterlimit="10" stroke-width="1"/>
      <path id="Tracé_309" data-name="Tracé 309" d="M-1262.849,519.745a5.317,5.317,0,0,0-3.649-1.268,8.626,8.626,0,0,0-3.793,1.045,13.31,13.31,0,0,0-5.491,5.6,10.294,10.294,0,0,0-1.066,7.455c.665,2.41,2.542,4.2,4.607,6.016l1.337,1.177-1.7.794a8.854,8.854,0,0,0-3.507,2.627,5.173,5.173,0,0,0-.863,3.867,5.294,5.294,0,0,0,1.342,3.543c.715.669,2.008.9,3.829,1.484l2.235.712-1.115,2.063a15.879,15.879,0,0,0-1.732,6.3,12.844,12.844,0,0,0,.962,6.34,10.521,10.521,0,0,0,4.573,4.6,9.974,9.974,0,0,0,6.792,1h.009a.19.19,0,0,1,.228.14.189.189,0,0,1-.09.207,9.739,9.739,0,0,1-7.712.561,11.952,11.952,0,0,1-6.489-4.932,11.177,11.177,0,0,1-1.537-3.992,19.466,19.466,0,0,1-.362-4.069,17.839,17.839,0,0,1,1.922-7.994L-1273,555.8a26.056,26.056,0,0,1-2.514-.807,7.112,7.112,0,0,1-2.765-1.9,6.91,6.91,0,0,1-1.471-2.993,11.812,11.812,0,0,1-.306-2.9,10.167,10.167,0,0,1,.34-2.953,7.6,7.6,0,0,1,1.452-2.733,11.348,11.348,0,0,1,4.713-3.156l-.367,1.971c-1.87-1.914-4.108-4.253-4.675-7.326a10.094,10.094,0,0,1,.179-4.443,16.624,16.624,0,0,1,1.638-3.98,14.217,14.217,0,0,1,6.142-5.756,9.305,9.305,0,0,1,4.145-.921,5.8,5.8,0,0,1,3.9,1.572.188.188,0,0,1,.006.266A.19.19,0,0,1-1262.849,519.745Z" transform="translate(1565.508 -318.096)"/>
      <path id="Tracé_310" data-name="Tracé 310" d="M-1430.824,413.88l49.933-1.194,49.934-1.013-1.3.8a8.411,8.411,0,0,0,.754-3.395,4.7,4.7,0,0,0-.99-2.955c-1.322-1.635-3.888-2.428-6.45-2.746l-2.569-.318,1.372-2.255a4.01,4.01,0,0,0,.4-3.644,6.214,6.214,0,0,0-2.894-2.894l.183.09c-3.347-1.394-7.786.16-10.369,2.98l-4.639,5.065,1.36-6.778a43.768,43.768,0,0,0,.3-17.771,26.267,26.267,0,0,0-3.07-8.149,18.378,18.378,0,0,0-5.906-6.113,18.712,18.712,0,0,0-8.205-2.561,26.042,26.042,0,0,0-8.887.773,22.252,22.252,0,0,0-8.059,3.9,12.914,12.914,0,0,0-4.753,7.516.188.188,0,0,1-.222.149.191.191,0,0,1-.152-.2,13.2,13.2,0,0,1,4.267-8.44,21.8,21.8,0,0,1,8.334-4.866,28.374,28.374,0,0,1,9.62-1.453,20.421,20.421,0,0,1,9.643,2.5,20.813,20.813,0,0,1,7.277,6.941,29.076,29.076,0,0,1,3.792,9.187,44.227,44.227,0,0,1-.231,19.407l-3.28-1.712a15.046,15.046,0,0,1,6.633-4.065,11.691,11.691,0,0,1,7.965.332l.12.053.064.038a12.106,12.106,0,0,1,2.537,1.947,8.223,8.223,0,0,1,1.852,2.865,7.187,7.187,0,0,1,.386,3.509,7.95,7.95,0,0,1-1.206,3.194l-1.2-2.573a19.116,19.116,0,0,1,4.46,1.191,9.858,9.858,0,0,1,4.028,2.958,7.839,7.839,0,0,1,1.549,4.916,11.438,11.438,0,0,1-1.181,4.742l-.385.8-.92,0-49.945-.1-49.946-.283a.189.189,0,0,1-.188-.189A.189.189,0,0,1-1430.824,413.88Z" transform="translate(1527.361 -358.402)"/>
      <path id="Tracé_311" data-name="Tracé 311" d="M-1390.276,375.8a14.421,14.421,0,0,0-3.359-4.383,7.008,7.008,0,0,0-4.665-1.845,13.393,13.393,0,0,0-2.547.436,15.447,15.447,0,0,0-2.494.877,16.177,16.177,0,0,0-4.363,2.814,19.808,19.808,0,0,0-5.374,8.8,40.164,40.164,0,0,0-1.68,10.6l-.075,2.291-2.247-.545a70.033,70.033,0,0,0-8.922-1.7,30.75,30.75,0,0,0-4.349-.145,8.589,8.589,0,0,0-3.705.948,3.633,3.633,0,0,0-1.741,2.722,21.259,21.259,0,0,0-.441,4.357,10.247,10.247,0,0,0,.8,4.063,7.7,7.7,0,0,0,2.673,3.111l1.91,1.352-2.207.18q-2.528.2-5.051.457c-.839.086-1.676.2-2.51.314-.418.06-.833.13-1.242.224a4.457,4.457,0,0,0-.6.179c-.167.054-.45.243-.177.372a.166.166,0,0,1-.129-.254.885.885,0,0,1,.247-.228,4.772,4.772,0,0,1,.576-.3c.395-.177.8-.328,1.2-.471.811-.287,1.636-.511,2.46-.742,1.649-.461,3.317-.812,4.982-1.183l-.3,1.531a9.082,9.082,0,0,1-3.777-3.508,11.8,11.8,0,0,1-1.517-4.934,24.019,24.019,0,0,1,.117-4.975,7.778,7.778,0,0,1,.834-2.789,9.325,9.325,0,0,1,.918-1.261,10.553,10.553,0,0,1,1.174-.972,11.769,11.769,0,0,1,5.19-1.679,26.161,26.161,0,0,1,5,.014,63.752,63.752,0,0,1,9.482,1.7l-2.323,1.746a40.21,40.21,0,0,1,2.1-11.606,21.514,21.514,0,0,1,6.849-9.868,17.094,17.094,0,0,1,5.352-2.851,17.7,17.7,0,0,1,2.925-.7,13.167,13.167,0,0,1,3.059-.162,8.182,8.182,0,0,1,5.29,2.924A13.182,13.182,0,0,1-1390.276,375.8Z" transform="translate(1524.382 -356.039)"/>
      <path id="Tracé_312" data-name="Tracé 312" d="M-1294.456,460.5l41.956-1.085,41.957-.9-1.264.728a4.091,4.091,0,0,0,.417-1.55,1.851,1.851,0,0,0-.333-1.214,4.764,4.764,0,0,0-2.988-1.369l-2.554-.411,1.5-2.186a22.584,22.584,0,0,0,1.548-2.514,8.066,8.066,0,0,0,.849-2.445,3.152,3.152,0,0,0-.287-2,4.254,4.254,0,0,0-1.555-1.541l.11.065a6.446,6.446,0,0,0-4.456-.712,8.835,8.835,0,0,0-4.124,2.469l-4.511,4.471,1.3-6.246a16.956,16.956,0,0,0-2.653-12.7A27.162,27.162,0,0,0-1239.8,422.2c-4.032-1.9-9.072-2.069-13.668-1.026a19.215,19.215,0,0,0-6.519,2.757,9.671,9.671,0,0,0-4.074,5.666.189.189,0,0,1-.226.142.189.189,0,0,1-.146-.2,10,10,0,0,1,3.658-6.608,19.191,19.191,0,0,1,6.762-3.7,24.912,24.912,0,0,1,7.653-1.244,19.624,19.624,0,0,1,7.823,1.421,29.141,29.141,0,0,1,12.125,9.87,21.444,21.444,0,0,1,3.285,7.4,18.374,18.374,0,0,1-.018,8.2l-3.216-1.775a12.562,12.562,0,0,1,6.017-3.4,9.349,9.349,0,0,1,3.669-.039,11.372,11.372,0,0,1,3.328,1.235l.065.036.045.03a7.8,7.8,0,0,1,2.76,2.983,6.718,6.718,0,0,1,.556,4.16,15.837,15.837,0,0,1-3.1,6.318l-1.053-2.6a11.012,11.012,0,0,1,2.581.868,6.024,6.024,0,0,1,2.381,2.024,4.989,4.989,0,0,1,.767,3.188,7.012,7.012,0,0,1-.913,2.846l-.407.732-.857,0-41.967-.211-41.969-.391a.187.187,0,0,1-.186-.189A.187.187,0,0,1-1294.456,460.5Z" transform="translate(1561.824 -343.344)"/>
      <path id="Tracé_313" data-name="Tracé 313" d="M-1263.968,431.8c-1.511-2.568-4.021-4.659-6.663-4.53-.327.025-.644.069-.972.1-.347.074-.694.13-1.035.217a16.745,16.745,0,0,0-2,.635,14.311,14.311,0,0,0-3.55,2.032,12.953,12.953,0,0,0-2.736,2.93,15.641,15.641,0,0,0-1.863,3.586,27.542,27.542,0,0,0-1.462,8.219l-.07,2.212-2.207-.467a69.3,69.3,0,0,0-7.214-1.273,28.19,28.19,0,0,0-3.51-.165,8.908,8.908,0,0,0-3.084.516,2.492,2.492,0,0,0-1.565,1.6,13.6,13.6,0,0,0-.476,3.364,7.122,7.122,0,0,0,.592,3.122,5.965,5.965,0,0,0,2.16,2.358l2.143,1.453-2.429.143-4.231.249c-.7.046-1.405.11-2.107.18-.351.034-.7.075-1.045.134a4.256,4.256,0,0,0-.507.118c-.138.038-.4.164-.17.276-.088.005-.194-.12-.1-.21a.758.758,0,0,1,.217-.18,4.564,4.564,0,0,1,.487-.249c.332-.144.669-.272,1.008-.391.68-.235,1.37-.425,2.061-.619,1.378-.392,2.774-.678,4.165-.995l-.287,1.6a7.469,7.469,0,0,1-3.3-2.741,8.766,8.766,0,0,1-1.34-4.116,16.362,16.362,0,0,1,.19-4.154,5.023,5.023,0,0,1,1.117-2.389,5.977,5.977,0,0,1,2.029-1.55,12.061,12.061,0,0,1,4.276-1.03,23.007,23.007,0,0,1,4.046.055,55.356,55.356,0,0,1,7.7,1.263l-2.277,1.745a27.961,27.961,0,0,1,1.949-9.365,16.465,16.465,0,0,1,6.194-7.558,14.794,14.794,0,0,1,4.468-1.967,18.848,18.848,0,0,1,2.371-.427c.4-.046.8-.06,1.194-.09a11.391,11.391,0,0,1,1.273.058,7.162,7.162,0,0,1,4.322,2.28A9.883,9.883,0,0,1-1263.968,431.8Z" transform="translate(1558.421 -341.461)"/>
    </g>
  </g>
</svg>
