<svg xmlns="http://www.w3.org/2000/svg" width="392.548" height="247.015" viewBox="0 0 392.548 247.015">
  <g id="fond_droit" data-name="fond droit" transform="translate(1007.606 -354.612)">
    <g id="Calque_3" data-name="Calque 3" transform="translate(-963.688 484.815)">
      <ellipse id="Ellipse_18" data-name="Ellipse 18" cx="124.513" cy="4.068" rx="124.513" ry="4.068" transform="translate(0 108.676)" fill="#d3c9ae"/>
      <ellipse id="Ellipse_19" data-name="Ellipse 19" cx="51.251" cy="2.03" rx="51.251" ry="2.03" transform="translate(246.127 103.972)" fill="#d3c9ae"/>
      <path id="Tracé_314" data-name="Tracé 314" d="M-687.021,561c9.883-9.6,14.923-19.03,3.266-22.763,8.091-13.107,18.667-44.165,6.734-37.439-.167-9.611.355-12.8-6.349-12.161s-10.426,13.747-7.3,22.355c-6.742.385-18.571,6.417-9.127,20.488C-703.276,539.081-710.367,547.411-687.021,561Z" transform="translate(994.105 -471.414)" fill="#c0edbc"/>
      <path id="Tracé_315" data-name="Tracé 315" d="M-723.9,561.393s15.513-20.726,14.918-26.9-9.862-4.022-9.862-4.022,9.621-6.232,8.381-10.059-6.7-4.2-6.7-4.2,14.026-26.245,6.065-30.271-5.1-6.627-11.482-2.764c0-8.565-3.64-8.565-3.64-8.565s-12.006,10.743-9.9,20.854c-8.033-4.873-17.119-4.171-16.854,9.857a117.988,117.988,0,0,0,2.731,23.91s-6.773,6.4,2.819,17.489S-723.9,561.393-723.9,561.393Z" transform="translate(989.164 -472.809)" fill="#c0edbc"/>
      <path id="Rectangle_29" data-name="Rectangle 29" d="M6.484,0h.778A1.289,1.289,0,0,1,8.551,1.289V110.582a1.289,1.289,0,0,1-1.289,1.289H1.289A1.289,1.289,0,0,1,0,110.582V6.484A6.484,6.484,0,0,1,6.484,0Z" transform="translate(88.935)" fill="#b1c6e5"/>
      <path id="Rectangle_30" data-name="Rectangle 30" d="M6.484,0h.778A1.289,1.289,0,0,1,8.551,1.289v37a1.289,1.289,0,0,1-1.289,1.289H1.289A1.289,1.289,0,0,1,0,38.292V6.484A6.484,6.484,0,0,1,6.484,0Z" transform="translate(9.213 72.29)" fill="#b1c6e5"/>
      <path id="Tracé_316" data-name="Tracé 316" d="M-944.029,539.37c.6-9.552,5.9-22.173,24.836-22.313,13.493-.1,22.888,3.579,24.136,20.837C-909.294,538.633-944.029,539.37-944.029,539.37Z" transform="translate(970.049 -468.563)" fill="#ea9d9d"/>
    </g>
    <g id="Calque_2" data-name="Calque 2" transform="translate(-1007.606 354.612)">
      <path id="Tracé_317" data-name="Tracé 317" d="M-683,503.629a18.4,18.4,0,0,1,4.874-4.714,5.611,5.611,0,0,1,1.715-.692,3.089,3.089,0,0,1,2.064.257,3.666,3.666,0,0,1,1.414,1.459,8.761,8.761,0,0,1,.733,1.674,20.311,20.311,0,0,1,.68,6.881,47.5,47.5,0,0,1-.842,6.726,69.456,69.456,0,0,1-3.868,12.918,53.024,53.024,0,0,1-2.946,6.117,26.163,26.163,0,0,1-4.111,5.606l-1.023-2.013a12.064,12.064,0,0,1,4.136-.227,6.32,6.32,0,0,1,2.238.725,4.985,4.985,0,0,1,1.854,1.809,6.224,6.224,0,0,1,.79,2.346,6.083,6.083,0,0,1-.194,2.457,10.78,10.78,0,0,1-2.083,3.784,37.694,37.694,0,0,1-2.589,2.8c-.858.876-1.651,1.723-2.441,2.619a20.019,20.019,0,0,0-2.109,2.794,11.01,11.01,0,0,0-.784,1.581,6.675,6.675,0,0,1-.438.923,1.9,1.9,0,0,1-.817.708.169.169,0,0,1-.223-.083.169.169,0,0,1,.024-.178l0-.007a2.274,2.274,0,0,0,.371-1.6,9.145,9.145,0,0,1,.281-1.98,14.39,14.39,0,0,1,1.56-3.664,54.146,54.146,0,0,1,4.473-6.033,10.448,10.448,0,0,0,1.608-2.632,3.771,3.771,0,0,0,.216-1.218,3.348,3.348,0,0,0-.25-1.2,2.605,2.605,0,0,0-1.95-1.353,9.613,9.613,0,0,0-3.269-.046l-3.611.462,2.588-2.475a23.963,23.963,0,0,0,3.819-5.032,50.732,50.732,0,0,0,2.933-5.811,67.424,67.424,0,0,0,3.991-12.467,45.541,45.541,0,0,0,.933-6.452,19.161,19.161,0,0,0-.473-6.312,4.95,4.95,0,0,0-1.338-2.375,2.705,2.705,0,0,0-2.564.157,19.274,19.274,0,0,0-5.117,3.968l-.007.007a.165.165,0,0,1-.233,0A.166.166,0,0,1-683,503.629Z" transform="translate(1039.63 -340.251)"/>
      <path id="Tracé_318" data-name="Tracé 318" d="M-679.552,502.816a25.345,25.345,0,0,0-.043-10c-.407-1.56-1.283-3.112-2.715-3.5a3.042,3.042,0,0,0-1.066-.1,1.671,1.671,0,0,0-.853.4,5.945,5.945,0,0,0-1.31,1.877,40.949,40.949,0,0,0-2.6,9.625c-.582,3.321-1.011,6.678-1.381,10.043l-.267,2.427-1.6-1.894a6.3,6.3,0,0,0-3.015-2.219,3.093,3.093,0,0,0-2.95,1.163,11.937,11.937,0,0,0-2.159,3.439,18.442,18.442,0,0,0-1.244,4.015c-.056.344-.107.653-.132,1.011l-.076,1.091c-.033.726-.067,1.452-.057,2.174a25.372,25.372,0,0,0,.343,4.258,21.263,21.263,0,0,0,1.089,3.993,18.178,18.178,0,0,0,1.944,3.554l1.119,1.621-1.687.882a6.3,6.3,0,0,0-3.259,5.034,16.085,16.085,0,0,0,0,3.55,24.149,24.149,0,0,0,.74,3.647A52.6,52.6,0,0,0-698.3,556.2a23.249,23.249,0,0,0,1.731,3.4,6.7,6.7,0,0,0,2.635,2.6l.01.006a.166.166,0,0,1,.081.219.166.166,0,0,1-.186.092,6.639,6.639,0,0,1-3.353-2.292,21.219,21.219,0,0,1-2.363-3.287,44.251,44.251,0,0,1-3.377-7.282,26.8,26.8,0,0,1-1.137-3.969,16.335,16.335,0,0,1-.3-4.275,10.394,10.394,0,0,1,1.28-4.418,8.991,8.991,0,0,1,3.418-3.315l-.568,2.5a18.384,18.384,0,0,1-3.35-9.136,31.456,31.456,0,0,1-.092-4.745c.033-.783.112-1.559.189-2.332l.145-1.153c.048-.393.121-.826.2-1.221a20.94,20.94,0,0,1,1.547-4.548,14.227,14.227,0,0,1,2.752-4.077,6.574,6.574,0,0,1,2.263-1.5,4.75,4.75,0,0,1,2.9-.16,8.326,8.326,0,0,1,4.116,3.059l-1.87.532c.5-3.378,1.059-6.753,1.779-10.107.361-1.678.768-3.349,1.272-5a26.11,26.11,0,0,1,1.923-4.869,7.021,7.021,0,0,1,1.723-2.179,2.754,2.754,0,0,1,1.461-.576,4.025,4.025,0,0,1,1.451.2,4.186,4.186,0,0,1,2.19,1.771,7.87,7.87,0,0,1,.984,2.495,25.85,25.85,0,0,1-.387,10.252.167.167,0,0,1-.195.131A.17.17,0,0,1-679.552,502.816Z" transform="translate(1037.922 -341.251)"/>
      <path id="Tracé_319" data-name="Tracé 319" d="M-723.481,485.961c.217-1.533.433-3.068.58-4.6a13.1,13.1,0,0,0-.119-4.477,2.093,2.093,0,0,0-1.2-1.438,4.636,4.636,0,0,0-2.035-.24,6.09,6.09,0,0,0-3.413,2.313,24.259,24.259,0,0,0-4.081,7.959,42.715,42.715,0,0,0-1.79,8.894l-.342,3.508-1.651-3.149c-.918-1.749-2.284-3.22-3.914-3.349-1.634-.162-3.43.838-4.881,2.14a16.152,16.152,0,0,0-3.589,4.718,8.752,8.752,0,0,0-.526,1.3c-.131.449-.257.959-.357,1.452-.208,1-.356,2.02-.471,3.052a63.919,63.919,0,0,0,.077,12.586c.2,2.1.461,4.183.852,6.222.2,1.016.431,2.02.705,2.979a10.3,10.3,0,0,0,.984,2.5l1.009,1.609-1.682.87a2.506,2.506,0,0,0-1.572,1.982,8.3,8.3,0,0,0,.49,3.5c.4,1.27.969,2.543,1.518,3.881.578,1.4,1.043,2.646,1.654,3.933a64.4,64.4,0,0,0,3.992,7.473,32.5,32.5,0,0,0,2.451,3.44,10.1,10.1,0,0,0,3.174,2.673l.008,0a.166.166,0,0,1,.079.22.167.167,0,0,1-.189.09,9.47,9.47,0,0,1-3.817-2.254,26.763,26.763,0,0,1-3.048-3.2,52.351,52.351,0,0,1-4.922-7.288c-.721-1.264-1.371-2.669-1.987-3.889a39.351,39.351,0,0,1-1.858-4.057,10.912,10.912,0,0,1-.839-4.949,5.745,5.745,0,0,1,1.091-2.8,6.24,6.24,0,0,1,2.265-1.837l-.673,2.479a13.092,13.092,0,0,1-1.434-3.453c-.309-1.111-.529-2.212-.724-3.31a63.166,63.166,0,0,1-.756-6.576,70.089,70.089,0,0,1,.381-13.18c.156-1.1.351-2.2.615-3.306.133-.557.281-1.088.468-1.665a11.482,11.482,0,0,1,.719-1.668,18.619,18.619,0,0,1,4.313-5.388,12.557,12.557,0,0,1,2.994-1.924,7.128,7.128,0,0,1,3.752-.636,6.122,6.122,0,0,1,3.464,1.725,10.827,10.827,0,0,1,2.068,2.924l-1.993.358a44.644,44.644,0,0,1,2.234-9.22,24.663,24.663,0,0,1,4.768-8.259,10.562,10.562,0,0,1,1.873-1.6,5.085,5.085,0,0,1,2.422-.9,5.524,5.524,0,0,1,2.519.445,3,3,0,0,1,1.593,2.075,13.6,13.6,0,0,1-.1,4.765c-.23,1.543-.528,3.066-.825,4.587a.164.164,0,0,1-.194.131A.168.168,0,0,1-723.481,485.961Z" transform="translate(1032.923 -342.653)"/>
      <path id="Tracé_320" data-name="Tracé 320" d="M-691.557,546.611a28.442,28.442,0,0,1,1.386,5.682,50.032,50.032,0,0,1,.5,5.678c.08,1.9-.008,3.754,0,5.6a27.671,27.671,0,0,1-.619,5.815,26.614,26.614,0,0,1-1.959-5.522,27.21,27.21,0,0,1-.714-5.787,41.638,41.638,0,0,1,.211-5.735A26.648,26.648,0,0,1-691.557,546.611Z" transform="translate(1039.083 -335.403)"/>
      <path id="Tracé_321" data-name="Tracé 321" d="M-730.786,541.318a43.45,43.45,0,0,1,1.375,7.139c.276,2.381.428,4.761.484,7.138.072,2.387-.02,4.738-.043,7.085a42.25,42.25,0,0,1-.7,7.237,41.38,41.38,0,0,1-1.888-7.03,44.375,44.375,0,0,1-.668-7.216,66.023,66.023,0,0,1,.229-7.177A41.171,41.171,0,0,1-730.786,541.318Z" transform="translate(1035.156 -335.932)"/>
      <path id="Tracé_322" data-name="Tracé 322" d="M-726.543,560.755c1.945-2.8,3.823-5.635,5.668-8.477,1.813-2.861,3.6-5.734,5.137-8.7a36.9,36.9,0,0,0,2.037-4.488,12.16,12.16,0,0,0,.613-2.229,10.484,10.484,0,0,0,.128-2.231,4.374,4.374,0,0,0-1.562-3.4,4.952,4.952,0,0,0-1.752-.836,7.073,7.073,0,0,0-2.012-.235l-5.244.243,4.324-3.111a14.966,14.966,0,0,0,3.322-3.17,6.585,6.585,0,0,0,.966-1.826,3.633,3.633,0,0,0,.169-.884c.021-.319.021-.77.015-1.137.008-1.525-.392-3.033-1.028-3.427-.538-.488-2.049-.355-3.469.216l-4.2,1.693,2.25-3.954c.989-1.738,1.966-3.481,2.839-5.273s1.662-3.617,2.372-5.466a35.042,35.042,0,0,0,2.434-11.514l0-.1h0a19.488,19.488,0,0,0-.057-4.064,10.986,10.986,0,0,0-1.14-3.867,5.731,5.731,0,0,0-2.844-2.717,8.241,8.241,0,0,0-4.123-.512,8.357,8.357,0,0,1,4.317-.02,6.541,6.541,0,0,1,3.542,2.707,12.225,12.225,0,0,1,1.664,4.16,18.4,18.4,0,0,1,.428,4.456l0-.1a33.7,33.7,0,0,1-1.673,12.447,52.4,52.4,0,0,1-2.235,5.847c-.852,1.9-1.761,3.769-2.769,5.582l-1.951-2.261a10.668,10.668,0,0,1,2.954-.745,5.227,5.227,0,0,1,3.544.859,5.5,5.5,0,0,1,2.005,2.99,11.535,11.535,0,0,1,.433,2.991c.008.5,0,.913-.036,1.456a6.932,6.932,0,0,1-.341,1.655,9.815,9.815,0,0,1-1.479,2.729,16.7,16.7,0,0,1-4.238,3.877l-.921-2.867a9.924,9.924,0,0,1,3.024.433,7.92,7.92,0,0,1,2.764,1.455,6.59,6.59,0,0,1,1.9,2.6,8.334,8.334,0,0,1,.586,2.993,12.712,12.712,0,0,1-.309,2.838,14.663,14.663,0,0,1-.883,2.637,35.368,35.368,0,0,1-2.463,4.654,87.482,87.482,0,0,1-5.99,8.378Q-723.006,557.051-726.543,560.755Z" transform="translate(1035.726 -341.969)"/>
      <path id="Tracé_323" data-name="Tracé 323" d="M-886.687,585.217c-.437-8.565-.719-17.13-.943-25.695s-.388-17.13-.5-25.7l-.14-12.846-.047-12.847c-.045-8.565.031-17.13.066-25.695v-.116l.01-.063a8.769,8.769,0,0,1,.395-1.566,12.17,12.17,0,0,1,.562-1.374,14.006,14.006,0,0,1,1.525-2.487,16.259,16.259,0,0,1,4.231-3.822,24.752,24.752,0,0,1,10.393-3.4,40.892,40.892,0,0,1,5.341-.275c1.733.047,3.465.065,5.2.065,3.47.036,6.938-.007,10.43-.15a78.483,78.483,0,0,1-10.341,1.8c-1.739.183-3.483.35-5.227.485a49.929,49.929,0,0,0-5.058.508,23.235,23.235,0,0,0-9.175,3.355,13.321,13.321,0,0,0-3.395,3.219,10.975,10.975,0,0,0-1.146,1.983,9,9,0,0,0-.4,1.051,6.485,6.485,0,0,0-.23.961l.011-.178c.035,8.565.111,17.13.067,25.695l-.048,12.847-.14,12.846c-.111,8.565-.262,17.13-.5,25.7S-886.25,576.652-886.687,585.217Z" transform="translate(1019.539 -343.142)"/>
      <path id="Tracé_324" data-name="Tracé 324" d="M-959.159,578.625c-.437-3.161-.719-6.322-.943-9.482s-.388-6.321-.5-9.481l-.14-4.741-.047-4.741c-.045-3.16.031-6.321.066-9.482l.007-.485.264-.392a2.132,2.132,0,0,1,.255-.3l.126-.11a2.662,2.662,0,0,1,.245-.19l.394-.246c.245-.133.47-.232.706-.346.443-.169.894-.366,1.321-.482.866-.284,1.714-.472,2.565-.68,1.693-.352,3.379-.63,5.064-.857,3.367-.465,6.726-.71,10.085-.948,6.716-.428,13.424-.5,20.125-.523l5.025.009,5.013.1,10.027.177,20.063.411c-6.676.5-13.361.805-20.047,1.079-6.68.253-13.386.464-20.048.6-6.669.168-13.334.449-19.956.97-3.306.284-6.616.575-9.867,1.073-1.626.243-3.234.536-4.809.885-.769.2-1.552.387-2.272.637-.381.108-.692.261-1.03.388l-.415.21-.138.087c-.039.021,0,0,0,0l.007-.01a1.228,1.228,0,0,0,.148-.184l.27-.878c.035,3.162.111,6.322.067,9.482l-.048,4.741-.14,4.741c-.111,3.16-.262,6.321-.5,9.481S-958.721,575.464-959.159,578.625Z" transform="translate(1012.289 -336.55)"/>
      <line id="Ligne_124" data-name="Ligne 124" y2="6.022" transform="translate(161.413 149.362)" fill="none" stroke="#000" stroke-linecap="round" stroke-miterlimit="10" stroke-width="3"/>
      <line id="Ligne_125" data-name="Ligne 125" y2="6.022" transform="translate(147.69 149.362)" fill="none" stroke="#000" stroke-linecap="round" stroke-miterlimit="10" stroke-width="3"/>
      <line id="Ligne_126" data-name="Ligne 126" y2="6.022" transform="translate(161.413 172.816)" fill="none" stroke="#000" stroke-linecap="round" stroke-miterlimit="10" stroke-width="3"/>
      <line id="Ligne_127" data-name="Ligne 127" y2="6.022" transform="translate(147.69 172.816)" fill="none" stroke="#000" stroke-linecap="round" stroke-miterlimit="10" stroke-width="3"/>
      <line id="Ligne_128" data-name="Ligne 128" y2="6.022" transform="translate(161.413 196.27)" fill="none" stroke="#000" stroke-linecap="round" stroke-miterlimit="10" stroke-width="3"/>
      <line id="Ligne_129" data-name="Ligne 129" y2="6.022" transform="translate(147.69 196.27)" fill="none" stroke="#000" stroke-linecap="round" stroke-miterlimit="10" stroke-width="3"/>
      <line id="Ligne_130" data-name="Ligne 130" y2="6.022" transform="translate(211.753 204.428)" fill="none" stroke="#000" stroke-linecap="round" stroke-miterlimit="10" stroke-width="3"/>
      <line id="Ligne_131" data-name="Ligne 131" y2="6.022" transform="translate(193.631 204.428)" fill="none" stroke="#000" stroke-linecap="round" stroke-miterlimit="10" stroke-width="3"/>
      <line id="Ligne_132" data-name="Ligne 132" y2="6.022" transform="translate(115.555 214.328)" fill="none" stroke="#000" stroke-linecap="round" stroke-miterlimit="10" stroke-width="3"/>
      <line id="Ligne_133" data-name="Ligne 133" y2="6.022" transform="translate(97.432 214.328)" fill="none" stroke="#000" stroke-linecap="round" stroke-miterlimit="10" stroke-width="3"/>
      <path id="Tracé_325" data-name="Tracé 325" d="M-918.627,514.214a78.71,78.71,0,0,1-1.11-8.2l1.45,1.263a2.3,2.3,0,0,1-1.4.627c-.5-.013-1.023-.21-1.52-.217a25.964,25.964,0,0,1-3.038-.421l.384-.441-.281,5.529a.165.165,0,0,1-.174.156.166.166,0,0,1-.156-.156l-.281-5.529-.013-.248.4-.195a26.166,26.166,0,0,1,2.808-1.231c.477-.142.929-.474,1.4-.622a2.3,2.3,0,0,1,1.52.221l1.509.646-.059.617a78.71,78.71,0,0,1-1.11,8.2.168.168,0,0,1-.2.132A.17.17,0,0,1-918.627,514.214Z" transform="translate(1015.894 -339.618)"/>
      <path id="Tracé_326" data-name="Tracé 326" d="M-840.778,452.728a78.724,78.724,0,0,1-1.11-8.2l1.45,1.263a2.294,2.294,0,0,1-1.4.626c-.5-.012-1.022-.209-1.52-.217a26.01,26.01,0,0,1-3.038-.42l.385-.441-.282,5.529a.165.165,0,0,1-.173.156.167.167,0,0,1-.157-.156l-.281-5.529-.012-.247.4-.195a25.966,25.966,0,0,1,2.81-1.231c.476-.143.927-.474,1.4-.622a2.289,2.289,0,0,1,1.52.221l1.509.646-.059.617a78.122,78.122,0,0,1-1.11,8.2.167.167,0,0,1-.2.132A.17.17,0,0,1-840.778,452.728Z" transform="translate(1023.683 -345.77)"/>
      <path id="Tracé_327" data-name="Tracé 327" d="M-917.949,412.043l-43.084,1.79-43.09,1.63-3.483.132,2.54-2.367a30.772,30.772,0,0,1,4.226-3.261,36.4,36.4,0,0,1,4.6-2.561,35.306,35.306,0,0,1,4.923-1.9,37.281,37.281,0,0,1,5.159-1.179l-.781,2.577a14.256,14.256,0,0,1-4.306-6.345,12.089,12.089,0,0,1,.285-7.786,17.976,17.976,0,0,1,4.109-6.331,24.215,24.215,0,0,1,5.908-4.416,45.281,45.281,0,0,1,13.369-5.219,25.129,25.129,0,0,1,7.4-.338A23.424,23.424,0,0,1-953,378.459l-2.309,2.027a20.915,20.915,0,0,1,.264-13.3,18.275,18.275,0,0,1,8.78-9.925A21.574,21.574,0,0,1-940,355.251a40.015,40.015,0,0,1,6.363-.631,25.126,25.126,0,0,1,6.363.593,11.711,11.711,0,0,1,3.039,1.122,4.209,4.209,0,0,1,2.133,2.438.166.166,0,0,1-.117.2.166.166,0,0,1-.2-.095,3.823,3.823,0,0,0-2.162-1.855,10.854,10.854,0,0,0-2.9-.691,30.226,30.226,0,0,0-6.058.06,38,38,0,0,0-5.962,1.1,22.1,22.1,0,0,0-5.434,2.143,15.888,15.888,0,0,0-7,8.645,18.907,18.907,0,0,0-.168,11.2l1.01,3.585-3.319-1.557a20.413,20.413,0,0,0-12.572-1.462,42.9,42.9,0,0,0-12.421,4.782,21.01,21.01,0,0,0-5.213,3.813,14.9,14.9,0,0,0-3.457,5.192,9.016,9.016,0,0,0-.286,5.837,11.289,11.289,0,0,0,3.382,5.012l2.325,2.1-3.106.475a34.249,34.249,0,0,0-4.752,1,32.486,32.486,0,0,0-4.577,1.668,33.58,33.58,0,0,0-4.311,2.3,27.684,27.684,0,0,0-3.859,2.863l-.943-2.235,43.114-.653,43.12-.493a.165.165,0,0,1,.167.163A.166.166,0,0,1-917.949,412.043Z" transform="translate(1007.606 -354.612)"/>
      <path id="Tracé_328" data-name="Tracé 328" d="M-934.6,367.215a21.629,21.629,0,0,1,4.592-4.028,14.606,14.606,0,0,1,5.882-2.361,9.894,9.894,0,0,1,1.68-.1c.56.029,1.058.088,1.591.157a18.777,18.777,0,0,1,3.138.7,11.121,11.121,0,0,1,5.583,3.732,10.492,10.492,0,0,1,1.981,6.534,20.16,20.16,0,0,1-1.222,6.37,48.744,48.744,0,0,1-5.915,10.927l-1.366-2.585a26.489,26.489,0,0,1,9.944,1.526,11.93,11.93,0,0,1,4.444,3.045,9.668,9.668,0,0,1,2.345,4.912,7.52,7.52,0,0,1,.02,2.832,10.858,10.858,0,0,1-.815,2.549,19.055,19.055,0,0,1-2.723,4.237,30.856,30.856,0,0,1-3.434,3.5,22.085,22.085,0,0,1-4,2.871l-.366-1.354c3.471.193,6.94.416,10.41.726-3.47.311-6.939.535-10.41.726l-2.5.139,2.137-1.492a27.9,27.9,0,0,0,6.446-6.452,18.408,18.408,0,0,0,2.194-3.859,6.038,6.038,0,0,0,.4-3.874,7.306,7.306,0,0,0-1.875-3.454,9.353,9.353,0,0,0-3.432-2.107,24.656,24.656,0,0,0-8.738-1.192l-3.2.012,1.829-2.6a45.667,45.667,0,0,0,5.628-10.113,17.374,17.374,0,0,0,1.213-5.358,7.609,7.609,0,0,0-1.258-4.819c-1.85-2.763-6.034-3.927-9.559-4.071a14.873,14.873,0,0,0-5.471,1.364A30.2,30.2,0,0,0-934.6,367.215Z" transform="translate(1014.91 -354)"/>
      <path id="Tracé_329" data-name="Tracé 329" d="M-803.738,517.991a62.482,62.482,0,0,1-1.109-7.3l1.318,1.273a25.748,25.748,0,0,1-5.255.609c-.879,0-1.76-.071-2.641-.126s-1.762-.1-2.642-.116c-3.519-.077-7.042-.271-10.566-.473l.43-.446-.281,4.927a.165.165,0,0,1-.175.155.164.164,0,0,1-.155-.155l-.281-4.927-.023-.388.453-.057c3.5-.442,7-.877,10.51-1.194.876-.08,1.751-.2,2.627-.3s1.75-.249,2.627-.307a25.743,25.743,0,0,1,5.283.249l1.433.19-.116,1.082a62.225,62.225,0,0,1-1.109,7.3.169.169,0,0,1-.2.128A.17.17,0,0,1-803.738,517.991Z" transform="translate(1025.864 -339.154)"/>
      <path id="Tracé_330" data-name="Tracé 330" d="M-860.748,574.766a27.888,27.888,0,0,1-.927-3.83c-.224-1.277-.384-2.554-.5-3.831a58.394,58.394,0,0,1-.164-7.661l1.445,1.584-5.443-.668q-1.363-.168-2.719-.264a11,11,0,0,0-1.333.01c-.414.066-.894.1-1.073.573a.833.833,0,0,1,.2-.749,2.343,2.343,0,0,1,.613-.52,6.149,6.149,0,0,1,1.394-.637,15.957,15.957,0,0,1,2.878-.668,31.2,31.2,0,0,1,5.774-.245l1.384.062.062,1.523a58.415,58.415,0,0,1-.164,7.661c-.116,1.277-.274,2.554-.5,3.831A27.738,27.738,0,0,1-860.748,574.766Z" transform="translate(1021.224 -334.281)"/>
      <path id="Tracé_331" data-name="Tracé 331" d="M-871.314,573.225a8.111,8.111,0,0,1-1.292-2.775,11.016,11.016,0,0,1-.358-2.775,10.827,10.827,0,0,1,.353-2.777,8.026,8.026,0,0,1,1.3-2.775,8.024,8.024,0,0,1,1.3,2.775,10.83,10.83,0,0,1,.353,2.777,11.016,11.016,0,0,1-.358,2.775A8.113,8.113,0,0,1-871.314,573.225Z" transform="translate(1021.077 -333.851)"/>
      <path id="Tracé_332" data-name="Tracé 332" d="M-892.43,575.779a13.79,13.79,0,0,1-.921-2.651,21.017,21.017,0,0,1-.507-2.65,28.127,28.127,0,0,1-.164-5.3l1.547,1.591c-4.056-.177-8.128-.383-12.192-.611l-6.1-.348-3.048-.119c-.507-.012-1.014-.007-1.52,0a7.449,7.449,0,0,0-.754.056c-.23.051-.537.047-.648.28.048-.278.375-.376.594-.481.244-.1.494-.176.745-.251.5-.147,1.01-.25,1.518-.351,1.018-.2,2.039-.351,3.063-.476,2.044-.277,4.093-.413,6.14-.572,4.1-.254,8.187-.344,12.29-.313l1.453.01.094,1.58a28.025,28.025,0,0,1-.164,5.3,21.006,21.006,0,0,1-.507,2.65A13.781,13.781,0,0,1-892.43,575.779Z" transform="translate(1016.697 -333.705)"/>
      <path id="Tracé_333" data-name="Tracé 333" d="M-929.2,557.174a7.959,7.959,0,0,1-.92-1.871,11.041,11.041,0,0,1-.507-1.871,14.024,14.024,0,0,1-.164-3.744l1.555,1.591c-3.62-.147-7.255-.335-10.882-.568l-5.444-.382-2.722-.173-1.361-.049c-.227,0-.453,0-.678.009-.21.033-.482,0-.614.176.083-.235.372-.29.572-.378.221-.079.446-.143.671-.2.45-.123.9-.209,1.359-.3.909-.177,1.821-.308,2.732-.421,1.824-.253,3.651-.381,5.476-.538,3.654-.25,7.3-.356,10.96-.357h1.423l.133,1.591a14.115,14.115,0,0,1-.164,3.744,11.059,11.059,0,0,1-.507,1.871A8.01,8.01,0,0,1-929.2,557.174Z" transform="translate(1013.276 -335.254)"/>
      <path id="Tracé_334" data-name="Tracé 334" d="M-950.788,549.447a7.988,7.988,0,0,1,.92,1.872,11.065,11.065,0,0,1,.507,1.871,14.024,14.024,0,0,1,.164,3.743l-1.555-1.591c3.62.147,7.255.334,10.882.568l5.444.381,2.721.174,1.361.049c.227,0,.453,0,.678-.01.209-.032.482,0,.614-.175-.083.235-.372.29-.572.378-.221.079-.445.142-.671.2-.45.123-.9.209-1.359.3-.909.177-1.821.308-2.733.422-1.824.253-3.651.381-5.477.537-3.654.25-7.3.358-10.959.359h-1.423l-.133-1.591a14.072,14.072,0,0,1,.164-3.743,11.048,11.048,0,0,1,.507-1.871A7.993,7.993,0,0,1-950.788,549.447Z" transform="translate(1013.126 -335.119)"/>
      <path id="Tracé_335" data-name="Tracé 335" d="M-840.548,495.112a5.67,5.67,0,0,1-1.352.927,6.805,6.805,0,0,1-1.353.5,7.373,7.373,0,0,1-2.7.164l1.591-1.56c-.128,2.991-.3,5.994-.539,8.99-.127,1.5-.247,3-.4,4.5l-.208,2.25L-845.6,512a2.25,2.25,0,0,0,.079,1.085c-.188-.082-.23-.319-.3-.486-.065-.184-.12-.37-.172-.556-.108-.373-.183-.748-.261-1.124-.161-.75-.282-1.5-.387-2.258-.233-1.507-.38-3.017-.515-4.526-.247-3.021-.366-6.034-.387-9.058l-.01-1.376,1.6-.185a7.42,7.42,0,0,1,2.7.164,6.741,6.741,0,0,1,1.353.5A5.64,5.64,0,0,1-840.548,495.112Z" transform="translate(1023.618 -340.72)"/>
      <path id="Tracé_336" data-name="Tracé 336" d="M-846.174,512.939a5.66,5.66,0,0,1,1.353-.926,6.708,6.708,0,0,1,1.352-.5,7.375,7.375,0,0,1,2.705-.164l-1.591,1.56c.128-2.991.3-5.994.539-8.99.127-1.5.247-3,.4-4.5l.208-2.25.084-1.125a2.249,2.249,0,0,0-.079-1.085c.189.082.23.319.3.486.065.184.12.37.172.556.108.373.183.748.262,1.124.16.75.281,1.5.386,2.258.233,1.507.381,3.017.516,4.526.246,3.021.365,6.034.387,9.058l.009,1.376-1.6.185a7.423,7.423,0,0,1-2.705-.164,6.706,6.706,0,0,1-1.352-.5A5.663,5.663,0,0,1-846.174,512.939Z" transform="translate(1023.757 -340.57)"/>
      <path id="Tracé_337" data-name="Tracé 337" d="M-840.548,464.385a5.638,5.638,0,0,1-1.352.927,6.74,6.74,0,0,1-1.353.5,7.372,7.372,0,0,1-2.7.164l1.591-1.56c-.128,2.991-.3,5.994-.539,8.991-.127,1.5-.247,3-.4,4.5l-.208,2.25-.085,1.125a2.253,2.253,0,0,0,.079,1.085c-.188-.084-.23-.319-.3-.487-.065-.184-.12-.37-.172-.555-.108-.372-.183-.748-.261-1.123-.161-.751-.282-1.5-.387-2.259-.233-1.507-.38-3.016-.515-4.526-.247-3.02-.366-6.034-.387-9.058l-.01-1.375,1.6-.185a7.371,7.371,0,0,1,2.7.164,6.8,6.8,0,0,1,1.353.5A5.671,5.671,0,0,1-840.548,464.385Z" transform="translate(1023.618 -343.794)"/>
      <path id="Tracé_338" data-name="Tracé 338" d="M-846.174,482.213a5.665,5.665,0,0,1,1.353-.927,6.707,6.707,0,0,1,1.352-.5,7.4,7.4,0,0,1,2.705-.164l-1.591,1.561c.128-2.991.3-5.994.539-8.991.127-1.5.247-3,.4-4.5l.208-2.25.084-1.125a2.25,2.25,0,0,0-.079-1.085c.189.084.23.319.3.486.065.184.12.37.172.556.108.373.183.749.262,1.124.16.751.281,1.5.386,2.258.233,1.508.381,3.017.516,4.527.246,3.02.365,6.033.387,9.058l.009,1.375-1.6.185a7.373,7.373,0,0,1-2.705-.164,6.715,6.715,0,0,1-1.352-.5A5.693,5.693,0,0,1-846.174,482.213Z" transform="translate(1023.757 -343.644)"/>
      <path id="Tracé_339" data-name="Tracé 339" d="M-916.586,574.67a5.085,5.085,0,0,1-1.294-1.921,5.436,5.436,0,0,1-.357-1.921,5.36,5.36,0,0,1,.352-1.921,5.038,5.038,0,0,1,1.3-1.921,5.021,5.021,0,0,1,1.3,1.921,5.31,5.31,0,0,1,.352,1.921,5.416,5.416,0,0,1-.356,1.921A5.071,5.071,0,0,1-916.586,574.67Z" transform="translate(1016.547 -333.364)"/>
      <path id="Tracé_340" data-name="Tracé 340" d="M-942.693,534.777a12.851,12.851,0,0,1-.135-3.935,12.114,12.114,0,0,1,1.227-3.862,16.438,16.438,0,0,1,5.532-5.955,35.063,35.063,0,0,1,15.053-5.255,23.332,23.332,0,0,1,4.126-.149,29.845,29.845,0,0,1,4.021.545,33.463,33.463,0,0,1,7.608,2.525,19.134,19.134,0,0,1,6.5,4.8,9.625,9.625,0,0,1,2.342,7.485,10.044,10.044,0,0,0-3.51-6.363,20.151,20.151,0,0,0-6.342-3.552,38.677,38.677,0,0,0-7.162-1.819,33.523,33.523,0,0,0-3.63-.4,20.886,20.886,0,0,0-3.569.2A44.238,44.238,0,0,0-927.9,520.5a32.966,32.966,0,0,0-6.824,2.712,16.486,16.486,0,0,0-5.506,4.614,11.848,11.848,0,0,0-1.716,3.229A16.155,16.155,0,0,0-942.693,534.777Z" transform="translate(1014.078 -338.507)"/>
      <path id="Tracé_341" data-name="Tracé 341" d="M-853.517,467a45.526,45.526,0,0,1-1.3-8.52,6.208,6.208,0,0,1,.289-2.28,1.334,1.334,0,0,1,.481-.611.939.939,0,0,1,.452-.16c.156-.019.2-.01.3-.016l1.071-.036,4.289-.145c5.718-.217,11.437-.319,17.155-.466a1.082,1.082,0,0,1,1.11,1.054v.057l.3,17.594.174,17.593.062,17.594-.056,17.594-1.708-1.587c5.907-.4,11.8-.628,17.715-.777q4.435-.112,8.886-.017a67.006,67.006,0,0,1,8.987.655,8.566,8.566,0,0,1,2.448.734,2.4,2.4,0,0,1,.785.635,1.62,1.62,0,0,1,.315.766,1.963,1.963,0,0,1,.019.211l0,.068,0,.139-.026,1.1-.109,4.418c-.062,2.945-.154,5.89-.261,8.834-.21,5.89-.366,11.78-.665,17.67-.3-5.89-.454-11.78-.664-17.67q-.16-4.417-.261-8.836l-.108-4.418-.026-1.1,0-.138,0-.069a.445.445,0,0,0,0,.075.522.522,0,0,0,.1.264c.035.066.018.019-.092-.021a7.563,7.563,0,0,0-1.8-.415,65.351,65.351,0,0,0-8.641-.316c-2.922.04-5.851.163-8.781.282-5.859.251-11.731.671-17.574,1.1a1.591,1.591,0,0,1-1.7-1.472c0-.035,0-.079,0-.114l-.056-17.594.062-17.594.174-17.593.3-17.594,1.111,1.111c-5.718-.147-11.437-.251-17.155-.468l-4.289-.144-1.071-.036a1.934,1.934,0,0,0-.233,0c-.016,0-.033-.007-.048.009-.043.008-.115.1-.177.213a5.62,5.62,0,0,0-.355,1.934A54.272,54.272,0,0,0-853.517,467Z" transform="translate(1022.893 -344.592)"/>
      <path id="Tracé_342" data-name="Tracé 342" d="M-779.064,551.7a23.518,23.518,0,0,1,1.459,5.717,40.54,40.54,0,0,1,.374,5.761,41.643,41.643,0,0,1-.415,5.749,26.157,26.157,0,0,1-1.418,5.715,28.8,28.8,0,0,1-1.177-5.757,49.455,49.455,0,0,1-.289-5.724,52.871,52.871,0,0,1,.34-5.711A33.74,33.74,0,0,1-779.064,551.7Z" transform="translate(1030.324 -334.894)"/>
      <path id="Tracé_343" data-name="Tracé 343" d="M-791.662,559.6a10.525,10.525,0,0,1,1.437,3.584,16.654,16.654,0,0,1,.371,3.643,16.9,16.9,0,0,1-.406,3.627,11.589,11.589,0,0,1-1.4,3.58,12.691,12.691,0,0,1-1.192-3.637,19.383,19.383,0,0,1-.3-3.593,20.694,20.694,0,0,1,.342-3.575A14.742,14.742,0,0,1-791.662,559.6Z" transform="translate(1029.062 -334.103)"/>
      <path id="Tracé_344" data-name="Tracé 344" d="M-808.126,566a4.447,4.447,0,0,1,1.412,1.928,5.431,5.431,0,0,1,.368,2.019,5.375,5.375,0,0,1-.4,1.994,4.92,4.92,0,0,1-1.384,1.921,5.444,5.444,0,0,1-1.21-2.01,5.783,5.783,0,0,1-.308-1.939,5.983,5.983,0,0,1,.345-1.915A6.384,6.384,0,0,1-808.126,566Z" transform="translate(1027.412 -333.463)"/>
      <path id="Tracé_345" data-name="Tracé 345" d="M-756.494,573.472a10.414,10.414,0,0,1-1.852-2.66c-.512-.957-.968-1.942-1.407-2.931-.885-1.977-1.659-4-2.415-6.023s-1.451-4.071-2.122-6.125l-.99-3.107c-.328-1.046-.549-2.1-.824-3.156l-.2-.763.755-.515a6.317,6.317,0,0,0,1.655-1.665,2.731,2.731,0,0,0,.463-1.873,3.76,3.76,0,0,0-.953-1.8,3.049,3.049,0,0,0-1.716-1.007,7.965,7.965,0,0,0-4.7.765c-.4.169-.8.363-1.177.567-.172.095-.414.228-.5.289l-.606.4-2.431,1.583c-3.248,2.1-6.494,4.2-9.772,6.252l-9.889,6.066c-3.32,1.984-6.667,3.924-10.024,5.851q-5.053,2.858-10.193,5.571c-3.448,1.77-6.9,3.531-10.466,5.087-1.774.789-3.576,1.529-5.422,2.159a22.49,22.49,0,0,1-2.824.79,6.982,6.982,0,0,1-1.47.154,1.915,1.915,0,0,1-.734-.141.7.7,0,0,1-.429-.565c.131.518.716.572,1.156.51a6.633,6.633,0,0,0,1.377-.336,28.163,28.163,0,0,0,2.649-1.095c1.729-.829,3.426-1.731,5.107-2.662q5.028-2.833,9.959-5.847c3.3-1.978,6.575-4.017,9.849-6.05l9.809-6.127,19.593-12.3,2.439-1.551.611-.385c.322-.2.511-.287.766-.42.479-.236.958-.453,1.452-.645a10.755,10.755,0,0,1,6.587-.722,5.922,5.922,0,0,1,3.124,1.981,6.218,6.218,0,0,1,1.48,3.346,5.348,5.348,0,0,1-1.038,3.585,8.617,8.617,0,0,1-2.531,2.284l.556-1.277c.212,1.041.389,2.1.624,3.131l.75,3.108c.516,2.081,1.069,4.152,1.619,6.225s1.161,4.128,1.8,6.176c.318,1.024.678,2.031,1.047,3.036A10.246,10.246,0,0,0-756.494,573.472Z" transform="translate(1024.701 -336.186)"/>
    </g>
  </g>
</svg>
